<?xml version="1.0" encoding="UTF-8"?>
<!-- Generated by Pixelmator Pro 3.6.9 -->
<svg width="340" height="434" viewBox="0 0 340 434" xmlns="http://www.w3.org/2000/svg">
    <path id="Trazado" fill="#58a937" stroke="none" d="M 137.240005 434 C 134.020004 433.170013 127.059998 427.52002 127.059998 424.25 L 127.059998 362.77002 L 108.410004 362.77002 C 100.800003 386.339996 67.919998 385.899994 59.560001 362.720001 L 7.13 362.720001 C 1.07 361.149994 -2.41 354.339996 1.96 349.170013 L 77.040001 274.580017 L 24.879999 274.580017 C 21.209999 274.580017 15.95 264.800018 20.209999 261.429993 L 89.75 192.330002 L 52.860001 192.330002 C 47.240002 192.330002 43.119999 183.420013 46.959999 178.800003 L 133.660004 92.51001 L 137.020004 69.049988 C 135.809998 67.48999 134.699997 65.779999 133.429993 64.279999 C 129.589996 59.730011 118.279999 50.950012 116.139999 46.799988 C 114.330002 43.290009 114.580002 38.480011 117.769997 35.920013 C 122.870003 31.820007 142.649994 31.640015 149.789993 29.359985 C 154.880005 22.51001 158.589996 8.269989 163.990005 2.429993 C 167.440002 -1.299988 173.740005 -0.880005 176.960007 2.929993 C 182.339996 9.279999 185.690002 22.220001 190.809998 29.359985 C 199.330002 32.190002 232.979996 30.26001 224.460007 46.799988 C 221.800003 51.970001 204.789993 64.160004 203.729996 68.48999 L 206.940002 92.51001 L 293.640015 178.800003 C 297.48999 183.420013 293.359985 192.330002 287.73999 192.330002 L 255.089996 192.330002 L 324.160004 261.050018 C 327.730011 265.070007 324.369995 274.580017 319.109985 274.580017 L 263.570007 274.580017 L 339.690002 350.660004 C 342.309998 354.610016 339.019989 361.100006 334.850006 362.380005 C 331.480011 363.420013 307.420013 363.300018 302.98999 362.779999 C 294 361.720001 293.070007 348.820007 301.029999 346.360016 C 304.399994 345.320007 307.75 346.300018 311.059998 345.380005 L 251.440002 287.420013 C 236.309998 297.450012 217.889999 290.910004 211.279999 274.529999 C 197.889999 273.309998 181.25 276.309998 168.259995 274.490021 C 158.460007 273.110016 158.240005 260.050018 167.529999 257.800018 L 211.289993 257.640015 C 221.259995 234.01001 251.009995 234.740005 261.459991 257.610016 L 295.799988 257.610016 L 229.910004 192.490005 L 177.600006 192.26001 C 169.399994 215.090012 136.899994 215.230011 128.619995 192.450012 L 113.019997 193.110001 L 48.200001 257.600006 L 120.699997 257.600006 C 122.349998 257.600006 126.400002 261.209991 126.879997 263.290009 C 130.860001 280.77002 106.809998 271.630005 100.309998 275.360016 L 29.549999 345.790009 L 60.080002 345.790009 C 67.870003 322.26001 100.43 322.660004 108.970001 345.830017 L 229.899994 345.980011 C 235.729996 347.52002 238.110001 352.630005 235.809998 358.290009 C 235.330002 359.480011 231.899994 362.75 230.940002 362.75 L 213.559998 362.75 L 213.509995 423.320007 C 212.050003 429.119995 208.610001 431.75 203.389999 433.970001 L 137.25 433.970001 Z M 188.110001 82.089996 C 188.479996 75.950012 185.100006 68.320007 186.630005 62.369995 C 187.570007 58.700012 199.080002 49.579987 199.119995 48.600006 L 180.169998 43.829987 L 170.720001 27.829987 C 168.330002 27.25 163.740005 41.559998 160.449997 43.829987 C 157.679993 45.73999 141.429993 47.230011 141.5 48.600006 C 144.160004 52.209991 152.960007 58.359985 153.990005 62.369995 C 155.520004 68.309998 152.139999 75.950012 152.509995 82.089996 C 153.25 82.920013 166.850006 74.529999 169.910004 74.399994 C 173.570007 74.23999 187.369995 82.929993 188.119995 82.089996 Z M 265.279999 175.369995 L 264.01001 172.820007 C 241.110001 153.529999 221.559998 128.209991 199.149994 108.790009 C 190.679993 101.450012 180.449997 96.970001 169.949997 93.119995 C 160.270004 97.869995 149.710007 101.790009 141.470001 108.790009 C 119.050003 127.820007 99.510002 153.779999 76.610001 172.820007 L 75.339996 175.369995 L 128.759995 175.369995 C 137.039993 151.200012 169.110001 152.179993 178.369995 175.369995 L 265.290009 175.369995 Z M 159.869995 177.329987 C 152.360001 168.829987 138.259995 180.520004 146.210007 189.720001 C 154.160004 198.920013 168 186.529999 159.869995 177.329987 Z M 236.169998 257.050018 C 221.720001 257.300018 226.539993 279.839996 239.479996 274.640015 C 248.580002 270.980011 245.820007 256.880005 236.169998 257.050018 Z M 83.599998 345.140015 C 69.970001 346.420013 74.660004 367.190002 86.980003 362.970001 C 97.669998 359.309998 93.5 344.209991 83.599998 345.140015 Z M 196.589996 362.77002 L 144.020004 362.77002 L 144.020004 417.040009 L 196.589996 417.040009 L 196.589996 362.77002 Z"/>
    <path id="path1" fill="#58a937" stroke="none" d="M 121.760002 296.809998 C 134.460007 294.360016 135.410004 314.800018 122.5 313.540009 C 112.629997 312.580017 112.769997 298.540009 121.760002 296.809998 Z"/>
    <path id="path2" fill="#58a937" stroke="none" d="M 259.609985 348.619995 C 267 340.25 279.98999 351.990021 272.440002 360.179993 C 264.890015 368.369995 252.360001 356.820007 259.609985 348.619995 Z"/>
    <path id="path3" fill="#58a937" stroke="none" d="M 191.259995 301.050018 C 203.899994 298.179993 205.779999 316.730011 194.389999 317.830017 C 184.279999 318.809998 181.929993 303.179993 191.259995 301.050018 Z"/>
    <path id="path4" fill="#58a937" stroke="none" d="M 119.190002 221.340012 C 133.619995 218.090012 132.669998 241.150009 119.419998 237.740005 C 110.949997 235.560013 111.800003 223.01001 119.190002 221.340012 Z"/>
    <path id="path5" fill="#58a937" stroke="none" d="M 198.710007 139.350006 C 209.889999 139.389984 210.009995 158.059998 196.220001 155.820007 C 187.539993 154.410004 188 139.320007 198.710007 139.350006 Z"/>
    <path id="path6" fill="#58a937" stroke="none" d="M 152.259995 119.589996 C 166.610001 116.320007 166.75 135.899994 155.470001 135.929993 C 144.910004 135.959991 144.470001 121.369995 152.259995 119.589996 Z"/>
</svg>
