<?xml version="1.0" encoding="UTF-8"?>
<svg id="Capa_1" data-name="Capa 1" xmlns="http://www.w3.org/2000/svg" xmlns:xlink="http://www.w3.org/1999/xlink" viewBox="0 0 523.34 555.48">
  <defs>
    <style>
      .cls-1 {
        fill: #e96634;
      }

      .cls-2 {
        fill: #676767;
      }

      .cls-2, .cls-3, .cls-4, .cls-5, .cls-6 {
        fill-rule: evenodd;
      }

      .cls-7 {
        fill: url(#Degradado_sin_nombre_30-3);
      }

      .cls-8 {
        fill: #88481d;
      }

      .cls-9 {
        fill: #935021;
      }

      .cls-10 {
        fill: #e3603d;
      }

      .cls-11 {
        fill: url(#Degradado_sin_nombre_30-5);
      }

      .cls-3 {
        fill: #fff;
      }

      .cls-12 {
        fill: #090a0b;
      }

      .cls-13 {
        fill: url(#Degradado_sin_nombre_30-2);
      }

      .cls-4, .cls-14 {
        fill: #010202;
      }

      .cls-15 {
        fill: url(#Degradado_sin_nombre_2);
      }

      .cls-16 {
        fill: #040505;
      }

      .cls-17 {
        fill: #050606;
      }

      .cls-5 {
        fill: #b62b2b;
      }

      .cls-18 {
        fill: #f9d472;
      }

      .cls-19 {
        fill: #030404;
      }

      .cls-20 {
        fill: url(#Degradado_sin_nombre_2-3);
      }

      .cls-21 {
        fill: url(#Degradado_sin_nombre_30-4);
      }

      .cls-6 {
        fill: #181715;
        opacity: .2;
      }

      .cls-22 {
        fill: #f4f2f1;
      }

      .cls-23 {
        fill: #020303;
      }

      .cls-24 {
        fill: #0c0e0e;
      }

      .cls-25 {
        fill: url(#Degradado_sin_nombre_30);
      }

      .cls-26 {
        fill: url(#Degradado_sin_nombre_2-2);
      }

      .cls-27 {
        fill: #100f0f;
      }
    </style>
    <linearGradient id="Degradado_sin_nombre_30" data-name="Degradado sin nombre 30" x1="219.77" y1="190.24" x2="375.85" y2="190.24" gradientTransform="translate(-122.91 119.67) rotate(-8.91)" gradientUnits="userSpaceOnUse">
      <stop offset="0" stop-color="#c89d66"/>
      <stop offset=".05" stop-color="#bb8b55"/>
      <stop offset=".12" stop-color="#ac7542"/>
      <stop offset=".21" stop-color="#a16433"/>
      <stop offset=".32" stop-color="#985828"/>
      <stop offset=".47" stop-color="#945122"/>
      <stop offset=".89" stop-color="#935021"/>
    </linearGradient>
    <linearGradient id="Degradado_sin_nombre_30-2" data-name="Degradado sin nombre 30" x1="390.27" y1="423.23" x2="529.5" y2="423.23" xlink:href="#Degradado_sin_nombre_30"/>
    <linearGradient id="Degradado_sin_nombre_2" data-name="Degradado sin nombre 2" x1="347.58" y1="381.6" x2="484.37" y2="381.6" gradientTransform="translate(-122.91 119.67) rotate(-8.91)" gradientUnits="userSpaceOnUse">
      <stop offset="0" stop-color="#f7ddad"/>
      <stop offset=".03" stop-color="#f7dca2"/>
      <stop offset=".13" stop-color="#f8da88"/>
      <stop offset=".23" stop-color="#f8d975"/>
      <stop offset=".33" stop-color="#f8d869"/>
      <stop offset=".44" stop-color="#f9d866"/>
      <stop offset="1" stop-color="#f8da8a"/>
    </linearGradient>
    <linearGradient id="Degradado_sin_nombre_2-2" data-name="Degradado sin nombre 2" x1="395.35" y1="240.67" x2="480.72" y2="240.67" xlink:href="#Degradado_sin_nombre_2"/>
    <linearGradient id="Degradado_sin_nombre_30-3" data-name="Degradado sin nombre 30" x1="353.42" y1="72.4" x2="493.8" y2="72.4" xlink:href="#Degradado_sin_nombre_30"/>
    <linearGradient id="Degradado_sin_nombre_2-3" data-name="Degradado sin nombre 2" x1="317.89" y1="164.83" x2="547.64" y2="164.83" xlink:href="#Degradado_sin_nombre_2"/>
    <linearGradient id="Degradado_sin_nombre_30-4" data-name="Degradado sin nombre 30" x1="263" y1="354.55" x2="530.06" y2="354.55" xlink:href="#Degradado_sin_nombre_30"/>
    <linearGradient id="Degradado_sin_nombre_30-5" data-name="Degradado sin nombre 30" x1="110.6" y1="191.45" x2="322.49" y2="191.45" xlink:href="#Degradado_sin_nombre_30"/>
  </defs>
  <g>
    <path class="cls-25" d="M158.44,32.87s80.82-10.4,94.34,66.15l5.06,22.66s1.22,128.4-17.94,165.45c0,0-74.91,110.84-43.48,152.06l4.48,57.54-36.71-41.14s-48.19-61.28-1-151.13c0,0,56.6-135.96,33.2-193.56,0,0-6.12-53.5-37.95-78.02Z"/>
    <path class="cls-17" d="M204.22,504.5l-42.15-47.25c-.51-.65-12.49-16.1-18.7-42.93-5.71-24.65-7.32-63.92,17.38-111.02,1.85-4.49,55.58-136.16,33.14-191.4l-.14-.34-.04-.37c-.06-.52-6.38-52.67-36.91-76.18l-5.18-3.99,6.48-.83c.85-.11,21.05-2.6,43.26,4.47,20.68,6.58,46.84,23,54.07,63.83l5.11,22.88v.29c.05,5.27,1.01,129.5-18.23,166.71l-.16.27c-.74,1.09-73.47,109.7-43.57,148.9l.48.63,5.17,66.32ZM166.28,453.86l31.31,35.1-3.8-48.78c-13.12-18.05-9.71-49.53,10.13-93.58,14.19-31.52,32.21-58.67,33.66-60.84,18.14-35.38,17.61-157.02,17.57-163.76l-5.03-22.49c-5.42-30.68-22.37-50.76-50.39-59.68-13.77-4.38-26.94-4.87-34.46-4.67,26.93,25.33,33.16,70.14,33.77,75.07,9.77,24.48,7.13,64.78-7.86,119.77-11.14,40.88-25.34,75.16-25.49,75.51l-.1.22c-13.2,25.14-26.88,64.14-17.02,107.12,5.72,24.94,16.91,39.98,17.71,41.03Z"/>
  </g>
  <g>
    <path class="cls-13" d="M411.29,392.73s42.33-18.6,48.63,28.26c0,0,16.44,38.51-64.47,89.67,0,0,80.06-6.83,63.55,13.96,0,0-8.7-9.04-19.97-4.67l18.18,6.51s11.98,10.08-100.68,7.98c0,0-41.69-3.86-6.9-20.76l61.64-120.96Z"/>
    <path class="cls-17" d="M445.83,534.55c-13.13,2.06-38.76,3.54-89.34,2.59h-.2c-5.05-.48-21.66-2.63-23.11-10.58-.88-4.83,3.72-9.58,14.46-14.91l61.67-121.01.88-.39c.81-.35,19.94-8.59,35.31.04,9.27,5.2,15,15.3,17.05,30.01,1.59,4.28,12.15,40.02-57.07,87.02,5.59-.27,12.87-.51,20.27-.41,29.26.39,35.32,5.41,37.33,9.16,1.13,2.11,1.71,5.6-1.97,10.23l-.84,1.05c0,.41-.09.83-.25,1.26-.52,1.4-1.48,3.94-14.22,5.94ZM356.7,531.75c68.76,1.28,89.58-2.03,95.88-4.08l-21.28-7.62,6.76-2.62c9.03-3.49,16.51.38,20.28,3.11.27-.76.27-1.4,0-1.92-3.41-6.35-34.53-7.67-62.64-5.27l-11.03.94,9.35-5.91c78.06-49.37,63.58-85.97,63.43-86.33l-.14-.34-.05-.36c-1.77-13.11-6.6-21.98-14.38-26.34-11.37-6.38-25.97-1.54-29.63-.15l-61.6,120.86-.81.4c-12.76,6.2-12.35,9.36-12.32,9.49.47,2.58,9.97,5.36,18.19,6.14Z"/>
  </g>
  <g>
    <path class="cls-15" d="M283.24,371.47l-12.13,17.28s45.46,9.31,48.22,43.86c0,0,8.67,38.4-19.54,71.45,0,0,59.14,18.82,104.06-49.71,0,0,26.59-43.4-11.79-98.87l-108.81,16Z"/>
    <path class="cls-27" d="M332.46,506.98c-19.1,2.99-32.58-1.19-33.17-1.38l-2.33-.74,1.58-1.86c27.37-32.06,19.28-69.66,19.2-70.04l-.03-.11v-.11c-2.65-32.92-46.5-42.31-46.94-42.4l-2.42-.5,13.96-19.87,110.5-16.25.57.83c20.11,29.06,22.28,54.83,20.57,71.33-1.87,17.94-8.45,28.86-8.73,29.31-23.54,35.92-51.03,47.72-69.95,51.3-.95.18-1.88.34-2.81.49ZM302.66,503.12c4.93,1.1,17.04,3.06,32.17.16,18.26-3.49,44.81-14.97,67.65-49.82.04-.06,6.5-10.82,8.26-28.08,1.61-15.76-.49-40.32-19.46-68.15l-107.12,15.75-10.37,14.77c9.52,2.55,44.62,14.01,47.14,44.63.5,2.41,7.41,38.85-18.27,70.75Z"/>
  </g>
  <g>
    <path class="cls-26" d="M306.87,282.95l69.09-39.02,11.34,26.41-3.47,49.3s-39.8,26.81-76.32-7.08c0,0,9.66-25.13-.64-29.61Z"/>
    <path class="cls-27" d="M358.8,330.44c-14.83,2.33-34.08.3-52.39-16.69l-.8-.75.39-1.02c2.53-6.59,7.5-24.38.23-27.54l-2.98-1.3,73.5-41.51,12.21,28.43-3.55,50.48-.66.44c-.21.14-10.76,7.07-25.94,9.45ZM309.41,312.1c32.44,29.27,67.66,9.77,72.86,6.61l3.39-48.09-10.47-24.39-65.23,36.84c3.12,2.97,4.03,8.54,2.7,16.63-.88,5.35-2.51,10.3-3.25,12.4Z"/>
  </g>
  <g>
    <path class="cls-7" d="M245.23,186.02s-6.2-36.9,10.12-73.39c0,0-4.64-22.18,7.2-33.61,0,0,10.37-.47,22.72,17.32,0,0,17.6-7.98,27.42-6.33,0,0,5.6-14.22,16.06-19.63,0,0,9.35,2.3,11.16,24.93,0,0,38.4,17.47,41.27,52.39l-21.01,10.25-3.78,11.03-20.02,5.46c-5.66-1.17-11.32-2.35-16.98-3.52-8.32-1.04-19.43-1.55-32.25.38-18.74,2.81-33.04,9.58-41.91,14.71Z"/>
    <path class="cls-17" d="M336.46,177.23l-17.51-3.63c-10.47-1.3-21.04-1.17-31.41.38-14.44,2.19-28.2,7-40.96,14.38l-3.37,1.95-.64-3.84c-.26-1.53-6.06-37.62,9.98-74.16-.77-4.45-3.38-24.11,8.13-35.22l.73-.71,1.02-.05c.47-.02,11.26-.3,23.78,16.68,4.68-1.93,16.32-6.31,24.81-5.88,2-4.26,7.54-14.5,16.5-19.14l.9-.47.99.24c1.13.28,10.86,3.32,13.07,25.79,7.27,3.66,38.73,21.34,41.41,53.94l.15,1.84-21.66,10.57-3.88,11.32-22.03,6.01ZM285.92,168.76c.27-.04.54-.08.81-.12,10.9-1.63,22-1.76,32.99-.38l.21.04,16.35,3.39,18.02-4.91,3.68-10.74,20.32-9.92c-3.86-31.71-39.15-48.17-39.51-48.33l-1.44-.66-.13-1.58c-1.27-15.92-6.35-20.78-8.37-22.1-8.7,5.29-13.6,17.45-13.65,17.58l-.81,2.03-2.16-.36c-7.4-1.24-21.18,4-25.86,6.13l-2.05.93-1.28-1.85c-9.13-13.14-16.88-15.6-19.46-16.05-9.55,10.49-5.64,30.05-5.6,30.25l.18.85-.36.8c-12.76,28.54-11.41,57.69-10.39,67.97,12.1-6.48,25.03-10.83,38.5-12.94Z"/>
  </g>
  <g>
    <path class="cls-20" d="M324.59,167.8s-49.05-15.19-101.11,35.07c0,0-11.77,18.32-6.59,28.03,0,0,11.3-.86,11.58.93s-6.15,13.32-2.67,15.06c0,0,2.11,4.7,11.96.41,0,0-8.35,25.56,12.82,11.72,0,0-5.57,22.84,10.85,7.91,0,0-1.5,16.71,13.6,7.93,0,0,9.71,18.15,63.65-11.35l28.97-13.69s82.5,6.74,73.42-68.7c0,0-9.59-37.84-58.69-32.89,0,0-17.97,5.29-23.54,11.43"/>
    <path class="cls-27" d="M297.19,281.37c-7.08,1.11-12.14.62-15.71-.44-3.7-1.1-5.8-2.79-6.89-3.98-4.54,2.37-8.18,2.71-10.83,1.02-2.66-1.69-3.58-5.03-3.87-7.62-4.04,3.14-7.01,3.99-9.21,2.68-2.98-1.77-2.87-7.03-2.36-10.76-5.09,2.78-8.78,3.22-11.22,1.35-3.58-2.74-2.68-9.6-1.74-13.7-7.07,2.16-9.88-.62-10.74-1.85-3.01-2.1-.77-7.93,1.04-12.66.37-.96.8-2.09,1.03-2.83-1.7-.36-6.06-.35-9.69-.07l-1.05.08-.5-.93c-5.57-10.43,6.15-28.89,6.65-29.67l.24-.29c27.21-26.27,53.63-34.53,70.99-36.82,18.91-2.5,31.21,1.21,31.72,1.37.85.26,1.33,1.17,1.07,2.03-.26.85-1.17,1.33-2.03,1.07-.48-.15-48.72-14.23-99.36,34.55-1.05,1.69-10.17,16.77-6.85,25.3,11.69-.76,12.02,1.35,12.18,2.37.15.97-.31,2.23-1.37,5-.75,1.95-3.03,7.9-2.17,8.86l.52.26.23.52c.57,1.05,3.4,2.39,9.83-.41l3.3-1.44-1.12,3.43c-1.45,4.46-2.48,11.52-.23,13.24,1.6,1.22,5.46-.02,10.62-3.38l3.43-2.24-.97,3.98c-1.08,4.44-1.27,9.98.18,10.84.31.18,2.14.82,8-4.52l3.08-2.8-.37,4.14c-.15,1.74,0,6.6,2.46,8.17,2.23,1.42,5.97-.19,8.71-1.78l1.45-.84.79,1.48c.08.14,10.06,16.1,61.44-12.01l29.44-13.92.43.04c.1,0,9.71.71,21.76-1.2,11.02-1.79,26.42-6.27,37.17-17.45,10.92-11.36,15.22-27.55,12.76-48.13-.66-2.48-10.59-36.18-56.78-31.6-1.68.51-17.71,5.46-22.66,10.93-.6.66-1.62.71-2.29.11-.66-.6-.71-1.63-.11-2.29,5.81-6.41,23.53-11.68,24.28-11.9l.14-.04h.15c14.36-1.46,34.52-.02,49.09,15.06,8.73,9.05,11.24,18.63,11.34,19.03l.03.1v.1c2.62,21.65-1.97,38.77-13.63,50.89-20.76,21.57-56.48,19.96-61.08,19.66l-28.58,13.51c-18.82,10.29-32.42,14.86-42.18,16.39ZM226.86,231.94h0Z"/>
  </g>
  <path class="cls-22" d="M286.36,146.82c.33,2.08-1.09,4.03-3.17,4.35s-4.03-1.09-4.35-3.17,1.09-4.03,3.17-4.35,4.03,1.1,4.35,3.17Z"/>
  <path class="cls-16" d="M274.54,171.36s-8.62-42.21,17.13-47.25c0,0,20.56-6.23,25.21,42.62,0,0-19.41-2.46-42.34,4.63Z"/>
  <path class="cls-22" d="M295.17,165.19s3.3-15.06-9.56-24.68c0,0-10.7-11.86,9.87-14.23,0,0,9.13-1.57,15.44,20.13l2.8,17.89-18.56.89Z"/>
  <path class="cls-19" d="M358.04,158.35s23.94-10,25.39-10.3c0,0-5.94-41.17-30.26-31.7,0,0-19.37,5-7.31,33.34l12.17,8.66Z"/>
  <path class="cls-18" d="M263.37,110.94s-3.01,3.74-4.3-2.43c0,0-.46-32.11,9.85-22.62,0,0,17.16,11.52,7.58,17.11l-13.13,7.94Z"/>
  <path class="cls-18" d="M319.62,87.14s5.74-15.55,12.48-6.21c0,0,7.7,16.5-1.3,14.51,0,0-17.32.33-11.18-8.3Z"/>
  <path class="cls-19" d="M322.35,182.13c.2,1.28-.68,2.49-1.96,2.69s-2.49-.68-2.69-1.96.68-2.49,1.96-2.69,2.49.68,2.69,1.96Z"/>
  <circle class="cls-19" cx="314.76" cy="194.49" r="2.97"/>
  <circle class="cls-19" cx="325.11" cy="198.13" r="2.23"/>
  <path class="cls-19" d="M331.91,188.66c.22,1.42-.75,2.75-2.17,2.97s-2.75-.75-2.97-2.17.75-2.75,2.17-2.97,2.75.75,2.97,2.17Z"/>
  <path class="cls-19" d="M365.52,187.03c.19,1.22-.64,2.36-1.86,2.55s-2.36-.64-2.55-1.86.64-2.36,1.86-2.55,2.36.64,2.55,1.86Z"/>
  <circle class="cls-19" cx="367.75" cy="175.64" r="2.23"/>
  <path class="cls-19" d="M375.43,184.6c.22,1.42-.75,2.75-2.17,2.97s-2.75-.75-2.97-2.17.75-2.75,2.17-2.97,2.75.75,2.97,2.17Z"/>
  <path class="cls-19" d="M348.08,260.87c-.73.11-1.45.19-2.19.23-13.03.75-22.49-10.07-22.89-10.53-.58-.68-.51-1.7.17-2.28.68-.58,1.7-.51,2.29.17.09.1,8.84,10.07,20.27,9.4,7.8-.45,15.16-5.71,21.87-15.62.5-.74,1.51-.93,2.25-.43.74.5.94,1.51.43,2.25-6.71,9.9-14.17,15.54-22.2,16.8Z"/>
  <path class="cls-22" d="M361.31,154.81s-.92-21.56-10.68-25.78c0,0-5.94-9.31,6.62-11.1,0,0,14.84-7.53,22.08,29.2l-18.01,7.68Z"/>
  <path class="cls-22" d="M285.12,145.81c.25,1.63-.86,3.15-2.48,3.41s-3.15-.86-3.41-2.48.86-3.15,2.48-3.41,3.15.86,3.41,2.48Z"/>
  <path class="cls-22" d="M350.3,132.47c.25,1.63-.86,3.15-2.48,3.41s-3.15-.86-3.41-2.48.86-3.15,2.48-3.41,3.15.86,3.41,2.48Z"/>
  <g>
    <g>
      <path class="cls-1" d="M386.01,293.61s3.65,105,113.28,53.03l7.22-8.45s-111.19-43.59-120.5-44.58Z"/>
      <path class="cls-24" d="M459.22,362.7c-17.33,2.72-32.09.41-44.14-6.92-12.43-7.56-21.86-20.72-27.29-38.05-4.05-12.96-4.46-23.57-4.48-24.02l-.11-3.11,3.09.33c9.4.99,109.78,40.27,121.2,44.75l3.53,1.38-10.06,11.78-.52.25c-15.02,7.12-28.78,11.66-41.22,13.61ZM389,297.1c1.13,10.34,6.3,40.34,28.9,54.07,18.95,11.52,45.76,9.26,79.7-6.73l4.38-5.13c-40.39-15.8-97.82-37.74-112.98-42.22Z"/>
    </g>
    <g>
      <path class="cls-10" d="M399.67,272.88c5.27-11.67,20.11-29.98,60.19-20.49.58.14,1.14.37,1.64.69l39.86,24.98c.47.29.89.65,1.25,1.08,2.87,3.37,15,19.27,9.59,41.8-.21.86-.63,1.65-1.22,2.31-3.82,4.2-20.32,17.45-65.31-.44-.12-.05-.23-.09-.35-.12-3.75-1.17-69.24-22-58.19-44.05,1.02-2.03,3.19-3.33,5.43-2.98.24.04.47.09.71.16,2.55.77,5.29-.5,6.39-2.93Z"/>
      <path class="cls-24" d="M494.2,333.94c-10.74,1.68-26.63.48-49.52-8.62-.05-.02-.1-.04-.15-.05-5.31-1.66-52.06-16.75-60.09-35.67-1.77-4.16-1.67-8.26.29-12.17,1.59-3.18,4.91-4.96,8.26-4.44.38.06.74.14,1.08.24,1.24.37,2.6-.25,3.15-1.46,5.64-12.48,21.36-31.93,63.27-22,.87.21,1.7.55,2.46,1.03l39.86,24.98c.7.44,1.33.98,1.87,1.61,2.71,3.18,15.91,20.23,10.16,44.18-.31,1.3-.95,2.51-1.85,3.49-2.18,2.39-7.77,7.15-18.78,8.88ZM391.52,278.32c-.79.12-1.55.69-1.96,1.52-1.24,2.46-1.28,4.96-.15,7.64,2.88,6.79,13.1,14.42,29.53,22.06,13.13,6.1,25.79,10.12,27.19,10.56.18.06.36.12.54.19,7.77,3.09,47.26,17.65,62.32,1.13.29-.31.49-.7.59-1.12,5.14-21.4-6.61-36.59-9.02-39.41-.18-.21-.39-.39-.62-.54l-39.86-24.98c-.26-.16-.55-.28-.83-.35-16.37-3.88-45.56-6.57-57.1,18.97h0c-1.65,3.66-5.8,5.56-9.63,4.4-.12-.04-.24-.06-.35-.08-.21-.03-.42-.03-.63,0Z"/>
    </g>
    <g>
      <g>
        <path class="cls-8" d="M441.67,319.47s47.9,24.7,71.69,2.21c0,0,22.25,6.7-8.31,17.2,0,0-36.05,9.32-70.95-10.48l7.57-8.93Z"/>
        <path class="cls-23" d="M500.03,342.07c-11.6,1.82-39.46,3.84-67-11.79l-2.27-1.29,10.36-12.23,1.53.79c.36.19,28.45,14.42,51.46,10.81,6.6-1.03,12.77-3.53,17.76-8.25l.91-.86,1.2.36c.95.29,9.25,2.95,9.36,8.43.09,4.64-5.5,8.73-17.59,12.89l-.16.05c-.33.09-2.31.58-5.56,1.09ZM437.46,327.78c32.3,17.11,65.2,9.47,66.98,9.03,13.94-4.8,14.6-8.08,14.58-8.69-.02-1.37-2.77-3.05-5.16-3.98-10.31,8.98-26.08,11.4-45.74,6.97-12.09-2.72-22.15-7.18-25.89-8.96l-4.77,5.63Z"/>
      </g>
      <g>
        <g>
          <path class="cls-23" d="M438.48,258.85c-2.97-1.82-8.71-4-13.39,2.41-.58.8-.51,1.91.17,2.62,1.96,2.07,6.66,5.17,13.57-1.79.95-.95.8-2.54-.34-3.25Z"/>
          <path class="cls-23" d="M432.12,268.44c-.52.08-1.03.12-1.54.11-3.23-.03-5.53-1.75-6.89-3.18-1.4-1.48-1.55-3.74-.35-5.39,4.1-5.62,10.18-6.73,16.27-2.98,1.1.67,1.81,1.79,1.96,3.08.16,1.31-.29,2.59-1.22,3.53-2.76,2.78-5.52,4.4-8.24,4.83ZM426.89,262.47c.79.81,2.06,1.75,3.74,1.77,1.98.02,4.21-1.19,6.62-3.61-4.13-2.49-7.61-1.87-10.35,1.84ZM437.35,260.69h.01s-.01,0-.01,0Z"/>
        </g>
        <g>
          <path class="cls-23" d="M465.92,268.56c-1.6-3.09-5.4-7.92-12.72-4.85-.91.38-1.42,1.37-1.21,2.33.61,2.78,3.03,7.87,12.55,5.47,1.3-.33,2-1.76,1.38-2.96Z"/>
          <path class="cls-23" d="M462.86,274.07c-3.52.55-6.45.13-8.72-1.28-2.75-1.7-3.83-4.35-4.26-6.28-.44-1.99.61-4,2.49-4.79,6.41-2.69,12.19-.5,15.47,5.85h0c.59,1.14.62,2.47.1,3.65-.54,1.2-1.59,2.07-2.87,2.4-.76.19-1.5.34-2.21.45ZM454.13,265.67c.26,1.1.86,2.57,2.29,3.44,1.68,1.04,4.22,1.15,7.53.32-2.25-4.26-5.55-5.53-9.82-3.77Z"/>
        </g>
        <g>
          <path class="cls-23" d="M446.13,282.65s-5.92-10.42-13.49-2.42c-7.57,7.99-.34,1.06-.34,1.06,0,0,2.6,14.97,13.83,1.36Z"/>
          <path class="cls-23" d="M438.99,290.46c-.88.14-1.75.1-2.59-.13-2.65-.7-4.24-3.04-5.14-5.12-1.24,1.04-2.38,1.61-3.59.41-1.5-1.49-.08-3.08.61-3.85.54-.61,1.43-1.57,2.8-3.02,2.62-2.77,5.43-3.99,8.35-3.63,5.21.63,8.45,6.24,8.58,6.47l.74,1.29-.95,1.15c-3.2,3.88-6.11,6-8.81,6.43ZM434.53,281.39c.39,1.63,1.44,4.36,2.98,4.76.66.17,2.48.11,5.9-3.65-1.02-1.28-2.68-2.89-4.51-3.1-1.38-.17-2.85.5-4.36,1.99Z"/>
        </g>
        <g>
          <path class="cls-23" d="M415.88,277.82s-.14-10.56-8.56-7.98c0,0-4.15,10.48,8.56,7.98Z"/>
          <path class="cls-23" d="M415.05,278.51c-3.76.59-6.38.03-7.79-1.66-2.21-2.66-.52-7.03-.45-7.22l.1-.24.25-.08c2.39-.73,4.4-.53,5.96.61,3.18,2.32,3.29,7.66,3.3,7.88v.45s-.44.09-.44.09c-.32.06-.63.12-.93.17ZM407.73,270.27c-.3.89-1.19,4.04.36,5.89,1.2,1.44,3.66,1.85,7.22,1.21-.1-1.28-.57-4.93-2.83-6.57-1.22-.89-2.81-1.06-4.75-.53Z"/>
        </g>
        <g>
          <path class="cls-23" d="M456.15,289.83c2.78-3.25,7.84-6.35,13.76,2.96,0,0-2.66,17.1-13.79,3.53-1.55-1.89-1.56-4.63.03-6.49Z"/>
          <path class="cls-23" d="M464.58,303.65c-3.13.49-6.45-1.47-10.14-5.96-2.23-2.72-2.21-6.62.06-9.26h0c2.39-2.79,5.13-4.17,7.91-3.97,3.3.23,6.43,2.65,9.31,7.17l.44.69-.12.8c-.14.91-1.54,8.95-6.77,10.38-.23.06-.45.11-.68.15ZM457.79,291.24c-.9,1.05-.9,2.61,0,3.71,2.6,3.17,4.91,4.78,6.34,4.39,1.64-.44,2.96-3.64,3.49-6.09-1.91-2.81-3.81-4.36-5.51-4.48-1.72-.12-3.3,1.27-4.32,2.47h0Z"/>
        </g>
        <g>
          <path class="cls-23" d="M475.03,277.7c3-1.78,9.15-5.2,8.59,7.24,0,0-10.17,7.64-10.01-4.81.01-1,.55-1.93,1.41-2.44Z"/>
          <path class="cls-23" d="M479,289.32c-1.3.2-2.65.12-3.9-.51-2.48-1.26-3.7-4.19-3.64-8.7.02-1.74.97-3.38,2.47-4.27h0c1.78-1.05,5.49-3.25,8.58-1.4,2.49,1.49,3.53,4.86,3.27,10.6l-.05,1.02-.82.61c-.4.3-3.01,2.19-5.93,2.65ZM479.48,278.07c-.75.12-1.87.62-3.35,1.49h0c-.21.13-.35.36-.35.61-.03,2.58.44,4.37,1.27,4.79.95.48,2.94-.28,4.44-1.19.05-4.72-1.07-5.54-1.21-5.62-.19-.11-.46-.14-.81-.09ZM475.03,277.7h.01s-.01,0-.01,0Z"/>
        </g>
        <g>
          <path class="cls-23" d="M499.46,315.96c2.25-4.83,4.8-14.27-3.93-22.41-1.08-1.01-2.55-.96-3.46.13-2.62,3.15-6.47,10.79,3.12,22.67,1.31,1.62,3.41,1.47,4.27-.39Z"/>
          <path class="cls-23" d="M497.98,319.58s-.1.01-.15.02c-1.59.2-3.21-.51-4.33-1.89-10.78-13.34-5.76-22.21-3.1-25.41.81-.97,1.93-1.55,3.13-1.63,1.25-.08,2.48.38,3.46,1.29,10.08,9.38,6.45,20.54,4.42,24.9h0c-.69,1.5-1.94,2.48-3.44,2.71ZM493.82,294.99s-.04.02-.09.08c-2.46,2.95-5.31,9.46,3.14,19.93.23.28.41.32.44.32h0s.1-.07.19-.26h0c2.47-5.32,3.88-13.09-3.44-19.91-.13-.12-.22-.14-.24-.14Z"/>
        </g>
        <g>
          <path class="cls-23" d="M478.84,316.12c-1.6-3.09-5.4-7.92-12.72-4.85-.91.38-1.42,1.37-1.21,2.33.61,2.78,3.03,7.87,12.55,5.47,1.3-.33,2-1.76,1.38-2.96Z"/>
          <path class="cls-23" d="M475.78,321.62c-3.52.55-6.45.13-8.72-1.28-2.75-1.7-3.83-4.35-4.26-6.28-.44-1.99.61-4,2.48-4.79,6.4-2.69,12.19-.51,15.47,5.85h0c.59,1.14.62,2.47.09,3.65-.54,1.2-1.59,2.07-2.87,2.4-.76.19-1.5.34-2.21.46ZM476.92,317.11h0s0,0,0,0ZM467.04,313.23c.26,1.1.86,2.57,2.29,3.44,1.68,1.04,4.22,1.15,7.53.32-2.25-4.26-5.56-5.53-9.82-3.77Z"/>
        </g>
        <g>
          <path class="cls-23" d="M459.4,348.03c-1.6-3.09-5.4-7.92-12.72-4.85-.91.38-1.42,1.37-1.21,2.33.61,2.78,3.03,7.87,12.55,5.47,1.3-.33,2-1.76,1.38-2.96Z"/>
          <path class="cls-23" d="M456.34,353.53c-3.52.55-6.45.13-8.72-1.28-2.75-1.7-3.83-4.35-4.25-6.28-.44-1.99.61-4,2.48-4.79,6.41-2.69,12.19-.51,15.47,5.85.59,1.14.62,2.47.09,3.65-.54,1.2-1.59,2.07-2.87,2.4-.76.19-1.5.34-2.21.46ZM457.48,349.02h.01s-.01,0-.01,0ZM447.6,345.14c.26,1.11.86,2.57,2.29,3.44,1.69,1.04,4.22,1.15,7.53.32-2.25-4.26-5.55-5.53-9.82-3.77Z"/>
        </g>
        <g>
          <path class="cls-23" d="M437.57,349.35c-.01-3.48-1.2-9.51-9.11-10.11-.98-.07-1.89.57-2.14,1.53-.72,2.76-.88,8.39,8.68,10.59,1.31.3,2.58-.66,2.58-2Z"/>
          <path class="cls-23" d="M436.15,353.51c-.54.08-1.09.07-1.64-.06-4.55-1.04-7.69-2.97-9.36-5.71-1.67-2.76-1.43-5.62-.93-7.53.51-1.97,2.37-3.29,4.39-3.13,6.93.52,11.08,5.1,11.11,12.25h0c0,1.29-.57,2.49-1.58,3.29-.59.47-1.28.77-2.01.89ZM437.57,349.35h.01s-.01,0-.01,0ZM435.41,349.35s0,0,0,0c0,0,0,0,0,0ZM428.38,341.4c-.27,1.1-.4,2.68.47,4.11,1.03,1.69,3.23,2.94,6.56,3.72-.06-4.82-2.42-7.45-7.02-7.83Z"/>
        </g>
        <g>
          <path class="cls-23" d="M461.96,358.91s-1.4-12.44,10.13-2.14l-10.13,2.14Z"/>
          <path class="cls-23" d="M460.08,361.52l-.27-2.36c-.12-1.04-.53-6.33,2.94-8.11,3.5-1.81,7.83,1.49,10.78,4.12l3.18,2.84-16.63,3.51ZM464.78,354.87s-.05.01-.05.01c-.22.11-.42.64-.55,1.35l2.83-.6c-1.4-.81-2.06-.79-2.24-.77Z"/>
        </g>
      </g>
    </g>
  </g>
  <g>
    <path class="cls-21" d="M273.11,273.14s-134.23,149.04-46.59,264.1c0,0-30.98,9.65-1.87,15.21,0,0,89.22,1.47,107.34-1.91,0,0,20.7-10.71-17.37-12.2-38.07-1.49,58.78,7.84,16.84-4.77,0,0,4.82-6.62-76.93-1.26,0,0,64.73-8.55,68.05-92.73,0,0-1.28-82.93-91.49-26.15,0,0,11.24-16.68,45.92-23.19l8.39-17.83s-24.6-7.33-29.35-17.25c0,0,32.41,23.16,61.71,26.56,0,0,47.09,8.07,91.59-37.8,0,0,4.72-7.05,19.46-8.08,1.47-.1,2.87-.69,3.97-1.67,6.22-5.55,24.92-23.62-2.66-17.48,0,0,24.99-24.17-13.29-13.37,0,0,10.62-24.04-17.1-3.71,0,0-9.04-13.5-12.16,4.04,0,0-5.47,46.68-69.75,17.33,0,0-19.85-14.47-39.52-20.98,0,0,3.51-4.81,28.12,9.45l8.71-32.8s-24.75,14.62-42.04-3.49Z"/>
    <path class="cls-17" d="M331.46,553.38c-20.16,3.16-103.26,1.84-106.85,1.78l-.46-.05c-9.91-1.89-14.43-4.52-14.66-8.51-.28-4.9,7.14-8.63,12.66-10.71-18.88-26.03-28.3-55.77-28.02-88.48.23-27.04,7.08-56.13,20.35-86.45,22.52-51.45,56.29-89.25,56.63-89.63l1.95-2.16,2.01,2.11c15.63,16.37,38.49,3.17,38.72,3.03l5.68-3.35-10.81,40.72c5.63,3.44,9.56,6.22,10.56,6.95,22.54,10.25,39.95,12.1,51.73,5.51,12.13-6.79,13.96-20.67,13.97-20.81l.02-.15c.44-2.48,1.78-10.01,6.97-11.1,3.41-.72,6.5,1.79,8.36,3.84,9.76-6.85,15.69-8.68,19.1-5.94,2.65,2.13,2.46,6.12,1.65,9.47,10.94-2.59,16.89-2.01,19.07,1.79,1.94,3.37-.27,7.91-2.98,11.6,5.34-.42,8.44.65,9.78,3.26.79,1.55,3.21,6.26-12.31,20.1-1.54,1.37-3.51,2.2-5.58,2.35-13.02.9-17.25,6.67-17.43,6.92l-.29.35c-44.51,45.88-91.02,39.07-93.9,38.6-9.18-1.07-19.38-4.06-30.45-8.9l-7.33,15.57c8.79-.78,16.48.61,23.06,4.17,21.86,11.85,22.59,42.99,22.61,44.31v.15c-.97,24.58-8.06,58.41-36.33,79.97-4.91,3.74-9.77,6.6-14.22,8.76,51.93-2.61,57.46.92,58.82,2.96,8.28,2.56,12.07,4.48,11.28,7.86-.37,1.59-1.46,2.69-4.99,3.27.15.33.26.67.34,1.03,1.1,4.94-5.61,8.69-6.96,9.39l-.35.18-.39.07c-.32.06-.66.12-1.03.17ZM224.93,549.76c5,.08,86.49,1.29,105.62-1.71.18-.03.36-.06.54-.09,1.78-1,3.54-2.5,3.8-3.25-.19-.24-.98-.97-3.76-1.72-1.42,0-2.98-.04-4.7-.09-7.95-.24-16.84-1-20.15-1.55-.91-.15-3.68-.61-3.41-3.26.27-2.58,2.88-2.59,4.78-2.61,1.59,0,3.97.05,7.07.17,7.36.29,12.96.91,17.01,1.92,1.13,0,2.19-.02,3.17-.05-1.14-.4-2.53-.85-4.23-1.36l-3.65-1.1.6-.82c-4.72-1.11-20.51-2.67-72.92.77l-.53-5.37c.14-.02,15.86-2.25,31.71-14.43,21.2-16.29,32.64-41.74,33.99-75.64-.05-1.52-1.15-29.49-19.81-39.59-15.17-8.21-37.9-2.91-67.54,15.74l-10.83,6.81,7.15-10.61c.48-.71,11.97-17.26,46.3-24.07l6.5-13.81c-7.1-2.4-23.79-8.86-28.03-17.71l-4.54-9.47,8.54,6.1c.32.23,32.19,22.8,60.45,26.07l.15.02c.45.08,46.21,7.19,89.07-36.89,1.07-1.4,6.84-8.02,21.34-9.03.87-.05,1.71-.41,2.36-.99,8.37-7.47,11.21-12.22,11.09-13.57-.36-.22-2.59-1.21-11.36.74l-9.33,2.08,6.87-6.65c4.55-4.41,7.79-9.73,7.15-10.83-.01-.03-2.2-2.41-17.83,2l-5.52,1.56,2.32-5.25c1.56-3.55,2.14-7.32,1.58-8.08,0,0-.2-.1-.95.02-1.57.25-5.41,1.56-13.66,7.62l-2.27,1.67-1.57-2.34c-1.4-2.07-3.58-3.95-4.49-3.76-.45.1-1.82,1.49-2.75,6.69-.19,1.46-2.5,16.81-16.62,24.76-13.41,7.56-32.57,5.75-56.93-5.38l-.25-.11-.22-.16c-.2-.14-19.76-14.3-38.78-20.6l-3.52-1.16,2.18-2.99c1.76-2.42,7.83-4.56,28.59,6.96l6.34-23.87c-8.33,3.25-24.64,7.18-37.78-4.43-7.29,8.57-34.76,42.36-53.92,86.19-12.95,29.63-19.63,57.99-19.84,84.28-.27,32.7,9.54,62.34,29.14,88.07l2.34,3.07-3.68,1.15c-5.79,1.81-11.65,4.86-12.4,6.43.37.42,2.21,2,10,3.51Z"/>
  </g>
  <g>
    <g>
      <path class="cls-9" d="M451.19,251.82s8.92-16.11,17.43-3.55c0,0-2.91,12.72-17.43,3.55Z"/>
      <path class="cls-12" d="M462.13,257.18c-3.46.54-7.51-.64-12.09-3.53l-1.72-1.09.99-1.78c.52-.94,5.27-9.14,11.9-9.45,3.43-.15,6.53,1.78,9.21,5.73l.53.78-.21.92c-.05.23-1.37,5.74-6.37,7.8-.71.29-1.46.5-2.23.62ZM454.22,251.09c3.44,1.83,6.34,2.34,8.46,1.48,2.03-.82,3.08-2.79,3.54-3.93-1.59-2.06-3.21-3.07-4.82-3-2.75.11-5.54,3.15-7.18,5.44Z"/>
    </g>
    <g>
      <path class="cls-9" d="M482.07,251.47s-2.91,12.72-17.43,3.55c0,0,8.92-16.11,17.43-3.55"/>
      <path class="cls-12" d="M475.57,260.38c-3.46.54-7.51-.64-12.09-3.53l-1.72-1.09.99-1.78c.52-.94,5.26-9.15,11.9-9.45,3.43-.15,6.53,1.77,9.21,5.73l.53.78-.21.92c-.05.23-1.37,5.74-6.37,7.8-.71.29-1.46.5-2.23.62ZM467.68,254.29c3.44,1.83,6.34,2.34,8.45,1.48,2.03-.82,3.08-2.79,3.54-3.93-1.59-2.06-3.21-3.07-4.83-3-2.74.13-5.54,3.19-7.17,5.45Z"/>
    </g>
    <g>
      <path class="cls-9" d="M497.75,265.97s.33-17.25-14.54-15.32c0,0-12.6,21.6,1.33,18.81l13.21-3.49Z"/>
      <path class="cls-12" d="M484.26,271.71c-3.38.53-5.82-.21-7.25-2.22-.67-.94-3.61-6.31,4.33-19.93l.54-.92,1.05-.14c4.68-.61,8.55.42,11.48,3.05,5.61,5.03,5.51,14.08,5.5,14.46l-.03,1.63-14.92,3.93c-.24.05-.47.09-.7.13ZM484.53,252.69c-3.08,5.6-5.36,12.4-4.01,14.29.6.84,2.62.56,3.53.38l11.46-3.02c-.22-2.4-1.04-6.93-3.99-9.57-1.78-1.58-4.07-2.27-6.98-2.07Z"/>
    </g>
  </g>
  <g>
    <path class="cls-9" d="M496.35,265.3s7.6-2.69,7.07,3.81c0,0,2.94,8-1.62,9.4,0,0-22.87-5.02-5.45-13.21Z"/>
    <path class="cls-12" d="M501.88,280.74l-.55-.12c-12.06-2.64-13.51-7.38-13.66-8.77-.52-4.61,5.71-7.54,7.76-8.5l.2-.08c.51-.18,5.04-1.69,7.92.52,1.01.77,2.15,2.27,2.05,5.02.48,1.47,1.69,5.87.16,8.95-.69,1.39-1.84,2.36-3.33,2.82l-.54.17ZM497.16,267.31c-4.24,2.01-5.26,3.53-5.2,4.06.16,1.42,4.65,3.67,9.61,4.87.13-.1.23-.23.31-.4.73-1.47-.04-4.73-.5-5.98l-.17-.45.04-.47c.04-.51.05-1.41-.35-1.72-.71-.54-2.72-.24-3.74.1Z"/>
  </g>
  <g>
    <path class="cls-11" d="M196.73,223S247.69,25.58,100.29,12.85c0,0-126.06-.72-91.64,120.86,0,0,36.83,78.19.25,112.6,0,0,33.96,14.13,75.47-47.67,0,0-58.9,192.52-16.36,248.31,0,0,29.5,96.75,146.74,80.41l-12.42-40.03s-65.24-10.95-49.67-128.78c.24-1.83.66-3.63,1.24-5.37l42.82-130.17Z"/>
    <path class="cls-17" d="M218.27,529.6l-3.15.44c-61.67,8.59-99.09-14.21-119.63-34.85-20.82-20.93-28.74-43.36-29.93-46.98-17.86-23.9-20.55-73.29-8-146.79,6.23-36.51,14.88-70.25,19.98-88.77-38.09,48.5-68.32,36.72-69.69,36.15l-3.85-1.6,3.04-2.86c9.94-9.34,20.22-28.5,12.8-66.72-4.52-23.25-13.54-42.57-13.64-42.76l-.15-.42C-4.35,97.68-1.33,68.14,15.03,46.62c11.49-15.1,29.9-26.2,53.24-32.09,17.51-4.42,31.46-4.39,32.04-4.39h.22c36.42,3.16,64.08,17.74,82.22,43.37,12.68,17.91,27.3,51.32,24.95,108.74-1.4,34.17-8.28,61.15-8.35,61.42l-.05.17-42.82,130.17c-.53,1.62-.91,3.27-1.13,4.89-7.92,59.91,5.64,90.99,18.4,106.51,13.56,16.49,28.88,19.23,29.03,19.25l1.64.28,13.86,44.66ZM92.27,182.01l-5.33,17.41c-.58,1.91-58.01,191.83-16.8,245.89l.29.38.14.46c.07.24,7.52,23.97,28.91,45.38,27.96,27.99,65.53,39.28,111.73,33.56l-11.01-35.48c-4.69-1.2-18.33-5.81-30.64-20.78-24.36-29.62-24.09-76.52-19.58-110.65.26-1.95.71-3.92,1.35-5.87l42.79-130.08c.86-3.42,26.1-106.45-15.8-165.62-17.16-24.23-43.45-38.05-78.15-41.07-2.66.02-55.38.83-80.87,34.36C4.08,69.96,1.35,97.83,11.2,132.76c2.45,5.27,34.37,75.88,2.96,111.98,3.6.45,9.34.48,16.62-1.83,21.66-6.88,39.88-28.69,51.36-45.78l10.15-15.11Z"/>
  </g>
  <path class="cls-17" d="M80.37,212.74c13.08-9.64,11.69-28.41,9.48-42.6-2.79-17.86-7.35-36.67-21.18-49.35-7.8-7.15-17.68-11.53-27.24-15.78-3.19-1.42-5.14,3.62-1.97,5.03,7.96,3.53,16.01,7.11,22.92,12.49,6.65,5.18,11.45,12.06,14.77,19.76,3.39,7.89,5.28,16.31,6.73,24.74,1.25,7.28,2.38,14.69,1.91,22.1-.47,7.41-2.61,14.85-8.83,19.43-2.8,2.06.62,6.25,3.42,4.19h0Z"/>
  <path class="cls-17" d="M40.72,134.57c8.31-.06,17.06-.21,24.9,2.94,6.15,2.48,11.98,7.38,13.47,14.11.75,3.38,6.09,2.57,5.34-.84-1.82-8.26-8.17-14.43-15.71-17.82-8.54-3.84-18.2-3.82-27.38-3.76-1.46,0-2.81.81-2.99,2.38-.15,1.31.91,3,2.38,2.99h0Z"/>
  <path class="cls-17" d="M202.59,485.36c-13.3-2.39-26.97-4.94-38.84-11.74-11.67-6.68-21.3-16.26-30.91-25.53-6.27-6.05-12.54-12.1-18.81-18.15-1.05-1.01-2.58-1.39-3.8-.38-1.03.84-1.44,2.78-.38,3.8,10.89,10.5,21.54,21.35,32.85,31.39,5.09,4.52,10.44,8.78,16.28,12.31,6.05,3.66,12.52,6.42,19.28,8.44,7.77,2.32,15.75,3.82,23.72,5.25,1.44.26,2.83-1,2.99-2.38.17-1.53-.94-2.73-2.38-2.99h0Z"/>
  <path class="cls-9" d="M359.46,161.12c.09,1.83-1.74,3.55-4.87,5.41-3.16,1.88-9.13,4.78-19.11,6.51,0,0-2.06-.47-4.28-1.5-.91-.42-5.16-2.76-5.22-4.81-.16-5.52,25-13.92,31.67-8.51.45.37,1.75,1.42,1.82,2.91Z"/>
  <path class="cls-27" d="M358.18,158.51c.82-.46,1.8-.26,2.2.45.4.71.06,1.65-.76,2.11-.82.46-1.8.26-2.2-.45-.13-.23-.18-.49-.16-.76.04-.52.37-1.05.92-1.36Z"/>
  <g>
    <path class="cls-4" d="M348.06,179.91s-3.91-4.79-9.11-5.27c-5.2-.47-5.64-4.65-4.52-6.49,3.68-6.05,15.81-8.79,21.05-8.61s4.76,7.4.86,10.86c-2.37,2.1-6.15,7.02-6.09,8.17.06,1.16-1.53,2.07-2.2,1.34Z"/>
    <path class="cls-14" d="M390.52,186.46s-.06.03-.23.06c-.17.03-.39.07-.68.09-.28.01-.64.04-1.04,0-.4-.02-.85-.1-1.33-.2-.24-.05-.48-.13-.74-.21-.26-.07-.52-.17-.77-.29-.26-.11-.52-.24-.79-.37-.26-.15-.52-.31-.78-.47-.13-.08-.27-.16-.39-.25l-.37-.29c-.25-.2-.5-.4-.74-.61-.45-.46-.92-.92-1.31-1.44l-.57-.78c-.09-.13-.19-.26-.28-.39l-.23-.41c-.15-.27-.31-.55-.45-.82-.07-.14-.14-.27-.21-.4-.06-.14-.12-.28-.17-.41-.22-.55-.43-1.08-.6-1.59-.14-.52-.26-1.01-.36-1.46-.05-.23-.1-.44-.13-.65-.02-.21-.04-.41-.06-.6-.04-.37-.05-.7-.07-.97-.03-.54-.02-.84-.02-.84,0-.39.33-.7.72-.7.24,0,.45.13.57.31l.04.05s.17.25.43.69c.12.22.28.49.44.79.08.15.16.32.25.49.1.16.2.34.31.52.22.36.43.75.66,1.16.25.4.52.8.78,1.23l.19.32.23.31c.15.2.3.42.44.63.28.44.64.81.95,1.22.31.41.69.74,1.01,1.14.38.32.69.71,1.06,1.01.18.16.35.31.52.47.18.14.36.28.52.42.34.29.69.52,1,.76.33.22.62.44.9.61.28.19.53.33.74.47.21.11.38.22.48.28.1.06.18.1.18.1.28.13.4.46.28.74-.06.12-.15.21-.26.27l-.09.04Z"/>
    <path class="cls-14" d="M299.23,217.17s.08-.09.17-.23c.09-.13.24-.34.44-.6.19-.26.42-.57.68-.93.25-.37.54-.75.83-1.2.31-.42.58-.91.91-1.39.14-.25.29-.51.44-.77.07-.13.16-.26.24-.39.08-.13.14-.28.21-.41.14-.28.29-.55.44-.83.13-.29.26-.58.39-.87.31-.57.47-1.21.72-1.82.13-.3.17-.64.27-.95.09-.32.18-.64.27-.96.09-.66.23-1.3.34-1.94.04-.65.11-1.28.18-1.89.04-.61.02-1.2.05-1.75.01-.28.02-.54.03-.8,0-.25-.02-.5-.02-.72-.02-.46-.02-.87-.03-1.2,0-.68.02-1.08.02-1.08v-.07c.02-.37.33-.65.7-.63.22.01.41.13.52.3,0,0,.22.34.57.97.17.32.38.7.61,1.15.11.23.25.46.34.73.09.27.2.55.29.84.19.59.42,1.24.58,1.95.12.72.24,1.48.34,2.28.04.8.02,1.65,0,2.51-.11.85-.22,1.73-.43,2.59-.12.43-.26.85-.39,1.27-.12.43-.29.84-.48,1.23-.19.39-.36.8-.56,1.17-.23.36-.45.72-.68,1.07-.22.35-.47.67-.74.97-.27.3-.51.6-.78.87-.56.51-1.07,1-1.62,1.36-1.06.77-2.06,1.21-2.78,1.46-.18.06-.34.12-.49.16-.15.04-.28.07-.39.1-.22.06-.31.05-.31.05-.44.24-.98.08-1.22-.36-.24-.44-.08-.98.36-1.22Z"/>
    <path class="cls-4" d="M306.91,211.27s3.9,1.4,11.51,6.94c7.61,5.54,19.56,22,33.06,15.67,13.5-6.33,8.71-17.56,10.04-21.81,2.17-6.98,8.45-15.59,18.51-25.52,0,0-12.58,14.8-30.97,2.48,0,0-7.87,16.74-20.93,23.49-13.06,6.75-13.04-4.36-21.22-1.25Z"/>
    <path class="cls-3" d="M362.6,193.9s-2.61,19.29-13.62,24.57c-11.01,5.27-17.4-8.04-17.4-8.04,0,0,12.88-9.72,17.48-21.41,0,0,5.73,5.08,13.53,4.88Z"/>
    <path class="cls-14" d="M325.82,215.08c-7.47,1.17-15-2.2-18.9-5-.89-.64-1.1-1.88-.46-2.77.64-.89,1.88-1.1,2.77-.46.59.42,13.89,9.69,23.6.52,12.19-11.51,16.71-21.14,13.81-29.43-.36-1.04.19-2.17,1.22-2.53,1.03-.36,2.17.19,2.53,1.22,3.46,9.93-1.39,20.92-14.84,33.62-3.01,2.84-6.37,4.3-9.74,4.82Z"/>
    <path class="cls-14" d="M367.09,196.63c-.34.05-.68.1-1.03.13-10.44,1.08-18.53-6.41-18.87-6.73-.8-.75-.84-2.01-.08-2.81.75-.8,2.01-.84,2.81-.09.11.1,7.18,6.58,15.77,5.67,5.6-.6,10.74-4.19,15.27-10.7.63-.9,1.86-1.12,2.76-.49.9.63,1.12,1.86.49,2.77-4.96,7.13-10.72,11.24-17.12,12.25Z"/>
    <path class="cls-2" d="M343.62,167.15c.13.83-1.02,1.69-2.56,1.93s-2.9-.23-3.03-1.06,1.02-1.69,2.56-1.93,2.9.23,3.03,1.06Z"/>
  </g>
  <g>
    <path class="cls-5" d="M358.14,72.06s-1.82-24.46-22.74-48.29C314.91.45,291.86-5.22,260.56,4.6c-57.46,18.03-72.76,121.05-57.24,125.52l17.43,5.02s5.93-35.93,15.66-40.57c9.73-4.65,121.74-22.5,121.74-22.5Z"/>
    <path class="cls-6" d="M223.3,122.81c2.24-9.27,6.39-22.07,10.81-26.66l1.33,3.62,26.72-23.58c-21.93,22.48-24.59-21.09-24.86-27.25.82-1.83.84-1.7-1.36.8-7.77,8.8-21.68,70.08-21.68,70.08,0,0,3.84,1.48,9.04,2.98h0Z"/>
    <path class="cls-6" d="M232.43,85.94c-.07-5.18.65-16.33.65-16.33,0,0-6.85,26.45-8.87,35.88-2.02,9.43-1.87,15.48-1.87,15.48l1.26.61c2.3-9.14,6.28-21.04,10.5-25.44l1.18,3.21-1.44-4.66s-1.35-2.49-1.43-8.76Z"/>
    <path class="cls-3" d="M233.23,109.94s3.74,19.14,7.22,25.48c3.48,6.34,10.48,2.66,20.5-2.91,10.02-5.57,38.5-21.14,58.85-22.28,20.35-1.14,42.26-.78,46.58-1.05,12.78-.8.2-43.49-5.87-46.67-31.13-16.34-93.1-6.03-118.53,18.05-10.6,10.03-9.89,19.8-8.75,29.4Z"/>
    <path class="cls-3" d="M213.38,154.26c11.02-1.8,18.57-12.06,16.81-22.85-1.76-10.78-12.18-18.11-23.2-16.31-11.02,1.8-18.57,12.06-16.81,22.85s12.18,18.11,23.2,16.31Z"/>
    <path class="cls-6" d="M226.59,122.93c1.81,2.43,3.08,5.31,3.6,8.49,1.77,10.81-5.76,21.04-16.81,22.85s-21.44-5.5-23.2-16.31c-.05-.32-.1-.64-.13-.95,4.34,5.83,11.81,9.1,19.61,7.82,10.72-1.75,18.13-11.44,16.94-21.89Z"/>
    <path class="cls-6" d="M367.81,108.85c.22-.08.44-.16.64-.28.12-.07.23-.16.34-.24.17-.12.34-.23.49-.37.11-.1.21-.23.31-.34.14-.15.27-.3.4-.47.1-.14.18-.29.27-.44.11-.18.22-.35.32-.55.08-.17.15-.35.23-.52.08-.2.17-.41.24-.62.07-.2.12-.4.18-.61.06-.23.13-.45.18-.69.05-.22.09-.45.14-.69.04-.24.09-.49.12-.75.03-.25.06-.51.09-.76.03-.26.05-.52.07-.79.02-.27.03-.55.05-.84.01-.27.02-.55.02-.83,0-.3,0-.6,0-.9,0-.28,0-.56-.02-.85-.01-.32-.02-.64-.04-.97-.02-.28-.03-.57-.06-.86-.02-.34-.05-.68-.08-1.03-.03-.29-.06-.58-.09-.87-.04-.36-.08-.72-.13-1.08-.04-.28-.08-.57-.12-.85-.05-.38-.11-.76-.17-1.14-.04-.28-.09-.56-.14-.84-.07-.39-.13-.78-.2-1.18-.01-.06-.02-.12-.03-.18-2.57,6.46-6.04,11.07-16.53,11.04-10.49-.03-38.36-2.04-61,6.47-22.64,8.5-31.09,11.9-47.09,10.01-3.92-.46-9.26-3.13-12.83-5.19.63,3.08,3.32,15.95,6.09,22.67.34.78.63,1.4.83,1.81.05.1.11.21.16.31,3.48,6.34,10.48,2.66,20.5-2.91,10.02-5.57,38.5-21.14,58.85-22.28,20.35-1.14,42.26-.78,46.58-1.05.39-.02.76-.09,1.1-.19.12-.03.22-.09.33-.13Z"/>
    <path class="cls-6" d="M364.81,103.79c-10.33,3.38-40.53,1.78-54.87,3.69-14.34,1.9-35.01,11.18-50.05,19.08-10.72,5.63-17.99,5.17-21.29,4.44.61,1.75,1.24,3.29,1.85,4.42,3.48,6.34,10.48,2.66,20.5-2.91,10.02-5.57,38.5-21.14,58.85-22.28,20.35-1.14,42.26-.78,46.58-1.05,3.42-.21,5.03-3.43,5.42-8.1-1.73.82-4,1.74-7,2.72Z"/>
  </g>
</svg>