<?xml version="1.0" encoding="UTF-8"?>
<!-- Generated by Pixelmator Pro 3.6.9 -->
<svg width="452" height="494" viewBox="0 0 452 494" xmlns="http://www.w3.org/2000/svg">
    <path id="Trazado" fill="#58a937" stroke="none" d="M 13.53 343.950012 C 6.32 342.600006 1.39 334.440002 1.04 327.440002 C 3.41 290.27002 -2.16 249.12001 0.99 212.420013 C 2.99 189.079987 24.129999 196.079987 40.869999 194.790009 C 46.439999 181.119995 60.16 173.880005 74 170.899994 C 74.949997 167.399994 72.309998 167.959991 70.5 166.01001 C 57.540001 151.980011 57.689999 146.98999 50.950001 130.73999 C 50.25 129.059998 43.709999 122.619995 42.869999 119.589996 C 40.990002 112.830017 41.439999 99.459991 44.75 93.200012 C 45.939999 90.940002 48.509998 91.070007 49.080002 86.48999 C 51.959999 63.220001 41.77 33.940002 60.48 14.940002 C 79.190002 -4.059998 131.059998 -2.720001 154.850006 2.630005 C 180.550003 8.410004 190.910004 22.529999 192.070007 48.410004 C 193.339996 76.670013 195.940002 128.98999 181.199997 152.619995 C 175.570007 161.649994 167.690002 167.559998 161.070007 175.339996 C 161.330002 176.589996 168.839996 181.290009 170.550003 182.920013 C 177.679993 189.690002 184 202.559998 185.029999 212.440002 C 185.570007 217.589996 185.929993 238.940002 185 243.240005 C 184.419998 245.910004 178.699997 247.670013 175.710007 246.76001 C 169.800003 244.940002 172.399994 221.480011 172.039993 215.410004 C 171.369995 204.139984 165.449997 191.23999 154.020004 187.950012 L 154.020004 194.450012 C 154.020004 194.450012 154.020004 328.450012 154.020004 328.450012 L 155.520004 329.950012 L 172.020004 329.950012 L 172.020004 273.450012 C 172.020004 272.860016 173.990005 269.420013 174.259995 268.190002 C 178.710007 266.390015 183.399994 266.619995 184.589996 271.899994 L 185.070007 359.490021 C 181.910004 370.570007 174.199997 370.809998 164.020004 369.940002 L 163.440002 454.01001 C 165.270004 456.529999 178.800003 451.880005 184.949997 460.740021 C 190.509995 468.75 187.559998 473.459991 189.029999 481.959991 L 247 481.959991 C 249.100006 477.119995 247.160004 471.440002 248.229996 466.660004 C 248.389999 465.950012 252.559998 458.910004 252.919998 458.580017 C 254.110001 457.51001 255.479996 458.26001 256.700012 457.619995 C 257.089996 457.420013 257.100006 456.230011 258.390015 455.779999 C 262.01001 454.52002 269.959991 456.02002 270.880005 453.27002 L 271.070007 387.390015 L 269.519989 383.940002 L 251.520004 383.940002 C 239.190002 383.940002 244.5 365.880005 243.570007 358.880005 C 229.839996 355.02002 223.270004 355.130005 225.119995 338.550018 C 225.869995 331.800018 229 323.700012 230.449997 317.910004 C 235.539993 297.540009 242.199997 277.559998 246.029999 256.940002 L 248.009995 257.950012 C 248.910004 246.62001 252.649994 234.950012 257.019989 224.459991 C 255.369995 222.459991 252.619995 223.910004 250 223.429993 C 228.419998 219.410004 236.020004 192.790009 235.5 176.809998 C 225.5 166.209991 224.759995 147.209991 237.070007 138.359985 C 223.610001 78.190002 278.390015 27.25 337.970001 45.480011 C 374.23999 56.579987 395.119995 93.610016 391.899994 130.339996 C 391.700012 132.639984 389.630005 136.630005 390.109985 138.320007 C 390.429993 139.450012 392.329987 139.730011 393.019989 140.700012 C 399.200012 149.350006 401.019989 158.220001 396.850006 168.299988 C 395.839996 170.75 391.609985 176.269989 391.459991 177.420013 C 390.5 184.730011 392.690002 197.070007 392.040009 205.480011 C 391.579987 211.399994 389.459991 217.25 384.350006 220.790009 C 380.220001 223.660004 375.899994 222.549988 371.450012 223.910004 C 370.48999 224.209991 369.48999 223.339996 370.049988 225.369995 C 370.790009 228.019989 375.339996 233.320007 377.339996 235.589996 C 381.380005 240.160004 389.660004 246.060013 393.019989 250.670013 C 396.380005 255.279999 394.869995 262.140015 388.459991 262.02002 C 383.5 261.929993 368.630005 243.37001 363.549988 239.889999 C 354.799988 235.980011 348.059998 243.810013 353.559998 251.880005 C 360.220001 261.640015 382.459991 281.880005 392.089996 291.339996 C 394.26001 293.470001 407.570007 306.26001 409.019989 305.52002 L 418.089996 295.429993 L 417.769989 293.140015 C 413.420013 290.149994 397.070007 276.440002 407.23999 271.679993 C 412.350006 269.279999 416.880005 274.790009 420.470001 277.970001 C 426.48999 283.309998 435.170013 292.230011 440.600006 298.330017 C 445.709991 304.070007 453.76001 311.01001 448.859985 319.320007 C 442.709991 324.029999 434.25 337.76001 426.519989 338.050018 C 418.089996 338.369995 415.809998 329.51001 409 326.940002 L 409 379.440002 C 409 381.330017 405.410004 389.589996 404.029999 391.190002 C 403.220001 392.130005 395.059998 396.940002 394.5 396.940002 L 363 396.940002 C 361.959991 402.51001 365.019989 416.670013 355.570007 415.910004 C 346.119995 415.149994 352.529999 401.709991 348.5 396.940002 L 332 396.940002 L 332 453.440002 L 333.5 454.940002 L 348.5 454.940002 C 352.019989 449.130005 348.170013 441.02002 351.890015 434.540009 C 357.559998 432.5 362.269989 432.700012 362.790009 439.670013 C 363.059998 443.25 362.910004 449.170013 363.049988 453.399994 C 363.190002 457.899994 362.079987 479.920013 363.970001 481.490021 L 445.420013 481.059998 C 452.440002 480.559998 454.519989 490.740021 448.76001 493.179993 L 7.47 493.990021 C 0.29 493.040009 0.42 483.839996 6.73 481.149994 C 21.120001 480.100006 35.619999 481.580017 49.98 481.529999 C 51.150002 481.529999 51.27 481.459991 52.02 480.440002 L 52.02 346.440002 C 52.02 346.089996 53.790001 345.330017 51.52 343.940002 C 40.32 342.480011 24.049999 345.910004 13.52 343.940002 Z M 62.029999 42.450012 C 61.07 54.700012 62.740002 68.070007 62.029999 80.450012 C 62.779999 81.470001 62.900002 81.540009 64.07 81.540009 C 70.089996 81.540009 79.879997 80.390015 85.300003 77.720001 C 86.959999 76.899994 87.769997 75.23999 89.110001 74.540009 C 97.540001 70.119995 99.269997 74.209991 107.540001 74.940002 C 118.639999 75.920013 128.929993 72.929993 137.75 66.299988 C 141.039993 63.830017 146.360001 54.450012 151.039993 59.470001 C 152.050003 60.549988 151.759995 62.220001 152.179993 62.76001 C 152.460007 63.109985 156.210007 66.459991 158.039993 68.429993 C 163.529999 74.339996 169.130005 78.899994 176.949997 81.559998 L 179.020004 80.450012 L 179.020004 45.450012 C 179.020004 44.269989 178.070007 38.470001 177.800003 36.660004 C 177.479996 34.570007 175.240005 33.079987 177.009995 29.940002 L 175.080002 30.920013 C 170.990005 16.980011 148.210007 13.609985 135.559998 12.899994 C 110.489998 11.51001 64.650002 8.920013 62.02 42.440002 Z M 249.029999 108.450012 C 248.399994 114.049988 249.029999 121.570007 249.029999 127.450012 C 249.029999 128.029999 250.529999 130.75 251.020004 129.950012 L 251.020004 127.950012 L 324.529999 127.950012 C 328.910004 124.200012 332.630005 110.600006 339.440002 110.940002 C 347.450012 111.339996 350.26001 122.950012 354.529999 127.950012 L 376.529999 127.950012 C 376.769989 127.950012 377.329987 129 378.019989 128.959991 C 382.589996 99.450012 368.190002 74.630005 342.25 61.269989 C 305.98999 42.600006 253.839996 65.570007 249.029999 108.440002 Z M 153.380005 82.600006 C 151.289993 80.73999 149.419998 75.51001 145.759995 76.080017 C 143.619995 76.410004 135.639999 82.899994 132.020004 84.450012 C 123.239998 88.209991 114.93 88.360016 105.489998 87.98999 C 102.580002 87.880005 97.620003 85.910004 95.669998 86.23999 C 94.290001 86.470001 87.419998 90.720001 84.239998 91.670013 C 71.610001 95.450012 53.830002 90.330017 54.040001 109.459991 C 54.099998 114.809998 56.689999 119.76001 61.860001 121.679993 C 65 122.839996 69.989998 121.309998 70.849998 126.660004 C 72.029999 133.959991 66.730003 133.139984 66.239998 135.559998 C 65.550003 138.929993 74.349998 151.470001 77.010002 154.480011 C 81.029999 159.040009 86.449997 163.369995 91.919998 166.089996 L 91.029999 167.940002 C 106.790001 170.970001 132.460007 174.48999 147.710007 167.119995 C 164.080002 159.209991 174.940002 140.609985 178.729996 123.309998 C 177.449997 116.360016 180.949997 102.75 178.880005 96.610016 C 178.289993 94.869995 167.509995 91.75 164.369995 90.119995 C 160.809998 88.269989 156.380005 85.26001 153.389999 82.600006 Z M 325.529999 140.950012 L 264.529999 140.950012 L 263.029999 142.450012 L 263.029999 167.450012 C 263.029999 174 272.709991 190.889984 277.369995 195.619995 C 308.559998 227.25 360.160004 206.639984 364.01001 163.440002 C 364.390015 159.179993 364.730011 147.23999 364.029999 143.450012 C 363.820007 142.309998 363.690002 141.429993 362.390015 141.089996 C 355.920013 140.929993 342.48999 142.290009 344.019989 132.950012 L 342.059998 133.950012 L 341.019989 129.959991 C 338.660004 128.279999 334.609985 137.850006 332.609985 139.029999 C 331.609985 139.619995 326.790009 140.809998 325.529999 140.950012 Z M 250.020004 146.950012 C 238.220001 145.109985 238.190002 168.410004 247.610001 168.950012 C 253.380005 169.290009 250.139999 163.540009 250.029999 160.429993 C 249.880005 155.940002 250.130005 151.420013 250.020004 146.940002 Z M 377.029999 148.450012 L 377.029999 168.950012 C 388.619995 170.820007 387.160004 147.75 379.380005 147.070007 L 377.029999 148.450012 Z M 249.029999 181.950012 L 249.029999 209.450012 L 250.529999 210.950012 L 273.029999 210.950012 C 272.779999 206.369995 267.709991 204.359985 265.089996 201.149994 C 260.820007 195.950012 257.170013 189.160004 254.559998 182.920013 L 249.029999 181.950012 Z M 353.029999 210.950012 L 376.529999 210.950012 C 377.279999 210.950012 378.790009 208.519989 379 207.420013 C 379.660004 203.950012 379.540009 189.209991 379.070007 185.399994 C 378.73999 182.709991 378.570007 181.829987 375.51001 181.850006 C 370.359985 181.880005 370.649994 190.079987 367.470001 193 C 366.440002 193.950012 365.089996 192.839996 365.019989 192.940002 C 364.790009 193.269989 366.029999 195.109985 364.920013 197.25 C 361.940002 203.029999 355.51001 205.209991 353.01001 210.940002 Z M 94.900002 194.829987 C 97.279999 184.139984 94.419998 180.220001 83.169998 184.089996 L 83.169998 194.809998 C 83.169998 194.809998 94.900002 194.829987 94.900002 194.829987 Z M 115.93 183.029999 L 108.489998 183.869995 L 108.019997 194.950012 L 117.029999 194.950012 C 116.980003 190.940002 117.550003 186.809998 115.93 183.019989 Z M 141.029999 194.950012 C 141.5 184.980011 143.399994 181.019989 130.960007 183.380005 L 129.020004 194.929993 L 141.020004 194.929993 Z M 71.029999 194.950012 C 73.68 179.649994 61.330002 187.910004 57.029999 194.950012 L 71.029999 194.950012 Z M 115.029999 242.450012 C 114.389999 231.619995 115.5 220.329987 115.029999 209.450012 L 113.529999 207.950012 L 16.530001 207.950012 C 14.75 209.480011 14.27 211.179993 14.01 213.429993 C 12.97 222.359985 14.81 233.149994 14.05 242.310013 L 12.02 243.450012 C 11.99 243.779999 15.32 244.950012 15.53 244.950012 L 113.529999 244.950012 C 113.879997 244.950012 115.019997 243.610001 116.040001 243.940002 C 116.019997 243.290009 115.040001 242.720001 115.029999 242.450012 Z M 141.029999 329.950012 L 141.029999 209.450012 C 138.130005 206.519989 132.889999 208.470001 129.029999 207.950012 L 129.029999 329.950012 L 141.029999 329.950012 Z M 311.529999 296.950012 L 361.529999 296.950012 L 363.029999 295.450012 L 363.029999 279.450012 C 363.029999 277.970001 344.5 262.309998 342.019989 258.459991 C 337.730011 251.779999 338.570007 240.87001 342.130005 234.049988 L 343.98999 234.959991 C 342.519989 229.549988 355.700012 228.549988 351.970001 224.51001 C 349.140015 221.440002 334.720001 216.889984 333.160004 221.600006 C 332.540009 223.470001 332.910004 226.600006 332.070007 229.51001 C 326.809998 247.660004 301.100006 246.340012 294.76001 229.630005 C 293.940002 227.459991 295 224.959991 294.049988 222.459991 C 293.200012 220.220001 291.109985 220.200012 291 217.970001 L 289.369995 219.980011 L 280.059998 221.01001 C 279.720001 222.670013 280.269989 224.209991 280.700012 225.779999 C 284.679993 240.290009 294.119995 257.209991 299.929993 270.75 C 301.640015 274.740021 308.869995 296.209991 311.51001 296.970001 Z M 317.720001 228.630005 C 318.48999 228.070007 319.109985 226.130005 319.899994 225.299988 C 320.359985 222.079987 307.579987 222.670013 307.040009 224.480011 C 305.73999 228.790009 313.950012 231.350006 317.720001 228.630005 Z M 264.529999 308.950012 L 290.029999 308.950012 C 289.369995 303.959991 295.959991 301.220001 296.940002 299.820007 C 297.480011 299.050018 294.399994 294.01001 296.019989 291.950012 L 294.040009 292.959991 L 269.519989 231.940002 C 267.709991 231.809998 267.140015 233.639984 266.519989 234.940002 C 261.350006 245.740005 264.399994 287.730011 264.079987 302.490021 C 264.019989 305.029999 262.059998 307.339996 264.529999 308.950012 Z M 115.029999 257.950012 L 15.53 257.950012 L 14.03 259.450012 L 14.03 327.450012 C 14.03 328.230011 15.74 331.149994 16.530001 331.950012 L 113.529999 331.950012 C 116.93 328.25 114.970001 322.610016 114.989998 318.490021 C 115.089996 298.309998 115.010002 278.119995 115.029999 257.950012 Z M 251.029999 318.450012 C 251.830002 315.75 251.029999 304.369995 251.029999 300.450012 C 251.029999 299.570007 253.960007 293.869995 249.509995 295.929993 L 243.960007 318.369995 C 244.070007 319.149994 250.279999 321 251.029999 318.450012 Z M 429.839996 305.170013 C 425.709991 302.77002 421.25 313.190002 417.100006 314.029999 L 425.100006 323.890015 C 426.269989 324.550018 436.910004 314.830017 436.799988 313.440002 L 429.850006 305.179993 Z M 313.029999 345.950012 L 313.029999 312.450012 C 313.029999 311.920013 309.769989 309.059998 308.48999 308.920013 C 306.73999 308.740021 302.029999 311.25 302.029999 312.450012 L 302.029999 345.950012 L 313.029999 345.950012 Z M 326.029999 383.950012 L 392.529999 383.950012 C 392.709991 383.950012 395.029999 381.630005 395.029999 381.450012 L 395.029999 311.450012 C 390.779999 307.149994 386.089996 309.929993 381.570007 309.990021 C 368.950012 310.170013 356.089996 310.339996 343.480011 309.990021 C 338.040009 309.839996 330.779999 306.899994 326.029999 310.440002 L 326.029999 383.940002 Z M 256.029999 371.950012 L 283.529999 371.950012 C 284.329987 371.950012 285.980011 370.890015 287.410004 371.720001 L 289.029999 370.450012 L 289.029999 323.450012 L 287.529999 321.950012 L 263.029999 321.950012 L 256.029999 371.950012 Z M 243.300003 331.580017 C 242.779999 331.27002 243.589996 329.51001 242.039993 329.959991 C 237.949997 336.779999 233.619995 345.649994 245.449997 345.830017 C 246.789993 345.5 249.300003 334.309998 247.800003 333.179993 C 246.119995 332.660004 244.899994 332.540009 243.300003 331.589996 Z M 125.029999 345.450012 L 125.029999 453.450012 L 126.529999 454.950012 L 149.529999 454.950012 L 151.029999 453.450012 L 151.029999 344.450012 C 148.279999 341.110016 143.910004 343.820007 140.520004 343.940002 C 137.5 344.040009 125.800003 342.970001 125.029999 345.450012 Z M 164.020004 342.940002 L 163.550003 355.990021 L 164.970001 357.399994 L 171.059998 357.51001 L 171.580002 343.890015 L 164.009995 342.950012 Z M 66.529999 343.950012 L 65.029999 345.450012 L 65.029999 453.450012 L 66.529999 454.950012 L 89.529999 454.950012 L 91.029999 453.450012 L 91.029999 345.450012 L 89.529999 343.950012 L 66.529999 343.950012 Z M 112.029999 453.450012 L 112.029999 345.450012 C 111.080002 343.300018 103.690002 343.140015 103.279999 345.410004 L 103.440002 454.02002 C 104.639999 455.660004 111.389999 455.490021 112.019997 453.459991 Z M 313.029999 359.950012 L 303.48999 359.190002 L 302.029999 360.450012 L 302.029999 381.450012 C 302.029999 384 313.029999 385.920013 313.029999 382.450012 L 313.029999 359.950012 Z M 284.029999 386.450012 C 284.200012 409.279999 283.899994 432.130005 284.029999 454.950012 L 300.529999 454.950012 C 303 453.339996 301.040009 451.029999 300.980011 448.490021 C 300.600006 431.209991 301.5 413.880005 300.869995 396.600006 C 300.049988 394.110016 290.140015 392.309998 293.019989 386.940002 C 289.309998 388.830017 290.589996 382.279999 284.630005 384.050018 C 282.170013 384.779999 284.029999 386.220001 284.029999 386.450012 Z M 314.029999 398.450012 L 314.029999 453.450012 C 314.029999 455.070007 319.910004 456.320007 319.980011 452.550018 L 319.019989 398.459991 L 317.51001 395.959991 C 316.459991 395.690002 314.160004 397.959991 314.029999 398.459991 Z M 66.260002 468.190002 C 64.580002 471.200012 63.619999 479.529999 67.730003 480.740021 L 109.949997 481.529999 L 111.879997 480.309998 L 111.900002 468.559998 L 107.480003 465.950012 L 106.480003 467.990021 C 104.870003 467.420013 103.32 466.910004 101.580002 466.890015 C 96.599998 466.830017 68.150002 466.320007 66.269997 468.190002 Z M 126.040001 481.950012 L 173.320007 480.740021 C 177.619995 478.230011 176.199997 467.640015 170.570007 466.899994 C 157.529999 465.170013 141.369995 468.910004 128.190002 466.170013 C 123.43 471.209991 124.190002 475.700012 126.040001 481.950012 Z M 264.73999 467.160004 C 258.549988 468.580017 258.410004 479.149994 263.290009 481.220001 C 272.690002 479.880005 283.429993 481.980011 292.540009 481.429993 C 294.01001 481.339996 295.440002 480.970001 296.600006 480 C 295.5 476.589996 296.579987 472.589996 296.019989 469.450012 C 295.269989 465.220001 292.679993 467.899994 290.519989 467.740021 C 283.670013 467.230011 271.160004 465.679993 264.730011 467.160004 Z M 310.029999 480.950012 L 349.029999 480.950012 C 350.26001 474.950012 352.450012 467.790009 344.549988 466.950012 C 333.890015 465.820007 321.690002 467.550018 311.019989 468.440002 C 307.880005 471.950012 308.880005 476.899994 310.029999 480.950012 Z"/>
    <path id="path1" fill="#58a937" stroke="none" d="M 122.790001 134.200012 C 124.489998 136.01001 123.849998 145.01001 130.110001 148.359985 C 137.880005 152.519989 143.759995 146.899994 146.520004 139.929993 C 146.940002 138.880005 146.300003 137.399994 146.789993 136.230011 C 148.470001 132.230011 154.990005 130.910004 157.729996 134.23999 C 159.639999 136.559998 158.059998 146.380005 156.800003 149.26001 C 156.589996 149.73999 150.610001 156.75 149.910004 157.279999 C 135.240005 168.320007 113.519997 159.399994 111.07 141.369995 C 109.959999 133.149994 117.830002 128.950012 122.779999 134.200012 Z"/>
    <path id="path2" fill="#58a937" stroke="none" d="M 144.740005 104.149994 C 144.929993 104.410004 146.029999 109.850006 146.059998 110.420013 C 146.619995 119.200012 145.610001 128.119995 135.529999 128.959991 C 131.830002 129.269989 126.849998 129.209991 125.459999 125 C 122.720001 116.700012 131.820007 117.339996 132.899994 115.820007 C 133.509995 114.970001 132.789993 110.410004 133.080002 108.5 C 133.990005 102.559998 141.100006 99.369995 144.729996 104.149994 Z"/>
    <path id="path3" fill="#58a937" stroke="none" d="M 169.669998 115.700012 C 169.610001 115.899994 168.679993 115.940002 168.309998 116.170013 L 169.009995 117.920013 L 163.009995 117.950012 L 164.029999 119.940002 C 152.139999 119.610016 156.410004 92.980011 166.919998 99.529999 C 171.009995 102.080017 170.970001 111.559998 169.660004 115.709991 Z"/>
    <path id="path4" fill="#58a937" stroke="none" d="M 110.739998 100.25 C 113.480003 102.470001 113.699997 111.970001 113 115.23999 C 112.940002 115.519989 109.099998 119.070007 108.779999 119.23999 C 100.120003 123.649994 98.160004 106.380005 101.080002 100.98999 L 102.860001 101.779999 C 103.330002 98.360016 108.610001 98.540009 110.739998 100.26001 Z"/>
    <path id="path5" fill="#58a937" stroke="none" d="M 304.790009 178.190002 C 307.679993 180.220001 305.450012 190.019989 313.529999 190 C 320.959991 189.980011 318.98999 184.639984 320.540009 180.970001 C 322.600006 176.089996 331.399994 175.589996 332.76001 181.700012 C 334.119995 187.809998 330.529999 195.470001 325.570007 199.01001 C 324.200012 199.98999 322.589996 199.639984 321.339996 200.290009 C 320.859985 200.540009 320.890015 202.040009 319.140015 202.529999 C 315.709991 203.5 309.190002 203.089996 305.829987 201.850006 C 304.619995 201.399994 297.440002 195.119995 296.649994 193.869995 C 293.970001 189.679993 292.640015 180.579987 297.51001 177.869995 C 299.209991 176.920013 303.309998 177.149994 304.790009 178.190002 Z"/>
    <path id="path6" fill="#58a937" stroke="none" d="M 317.299988 161.709991 C 319.279999 162.899994 325.029999 162.329987 321.980011 167.389984 L 323.959991 169.329987 C 312.929993 186.339996 293.399994 161.670013 307.100006 152.470001 C 314.809998 147.299988 315.459991 160.600006 317.299988 161.709991 Z"/>
    <path id="path7" fill="#58a937" stroke="none" d="M 344.75 163.660004 C 344.029999 164.429993 342.480011 164.779999 341.429993 164.889984 C 328.640015 166.160004 330.790009 140.720001 343.640015 146.850006 C 348.140015 148.98999 347.850006 160.350006 344.75 163.660004 Z"/>
    <path id="path8" fill="#58a937" stroke="none" d="M 281.339996 148.209991 C 281.390015 148.049988 283.700012 146.109985 283.850006 146.040009 C 295.320007 141.179993 294.679993 162.299988 291.040009 164.450012 C 280.429993 168.670013 279.079987 155.279999 281.339996 148.209991 Z"/>
    <path id="path9" fill="#58a937" stroke="none" d="M 47.84 274.209991 C 55.970001 274.070007 65.169998 274.860016 73.559998 274.990021 C 79.830002 275.089996 86.459999 273.940002 93.290001 275.179993 C 99.230003 276.25 104.339996 282.630005 105.040001 288.429993 C 106.550003 300.839996 106.230003 318.27002 90.519997 319.959991 C 79.110001 321.179993 50.869999 321.230011 39.509998 319.959991 C 32.91 319.220001 27.15 314.570007 25.280001 308.190002 C 24.52 305.600006 23.75 296.25 23.92 293.459991 C 24.33 286.920013 27.02 278.690002 33.599998 276.050018 C 36.700001 274.809998 44.299999 274.279999 47.82 274.220001 Z M 89.529999 286.950012 L 40.529999 286.950012 C 40.25 286.950012 38.200001 287.980011 37.990002 288.630005 L 38.220001 305.26001 L 39.529999 306.950012 L 90.529999 306.950012 C 94.769997 302.220001 91.059998 294.580017 92.07 288.630005 L 89.529999 286.950012 Z"/>
    <path id="path10" fill="#58a937" stroke="none" d="M 54.790001 219.209991 C 59.919998 218.450012 73.660004 218.389984 78.279999 220.200012 C 81.730003 221.549988 82.080002 228.209991 78.970001 230.389984 C 76.040001 232.450012 54.610001 232.709991 50.970001 231.5 C 44.66 229.410004 46.049999 220.51001 54.799999 219.200012 Z"/>
    <path id="path11" fill="#58a937" stroke="none" d="M 385.459991 376.399994 C 385.100006 376.649994 385.149994 377.700012 384.320007 377.910004 C 381.019989 378.75 376.73999 377.75 373.609985 377.940002 C 364.850006 378.480011 343.160004 380.990021 335.839996 376.640015 C 328.519989 372.290009 328.070007 351.630005 332.160004 345.580017 C 332.459991 345.130005 337.890015 340.779999 338.25 340.640015 C 341.890015 339.209991 372.940002 339.380005 378.570007 339.910004 C 388.48999 340.839996 390.5 346.350006 391.070007 355.410004 C 391.51001 362.420013 391.700012 372.130005 385.459991 376.399994 Z M 344.029999 365.950012 L 376.529999 365.950012 C 378.959991 363.119995 378.920013 355.670013 376.529999 352.950012 L 344.029999 352.950012 L 344.029999 365.950012 Z"/>
    <path id="path12" fill="#58a937" stroke="none" d="M 376.720001 322.240021 C 379.059998 325.100006 377.970001 329.459991 374.970001 331.390015 C 370.980011 333.970001 346.359985 334.279999 345.01001 329.25 C 344.540009 327.490021 345.089996 324.119995 345.200012 322.119995 C 346.859985 319.390015 367.640015 319.420013 371.570007 319.910004 C 373.109985 320.100006 375.790009 321.100006 376.720001 322.240021 Z"/>
</svg>
