<?xml version="1.0" encoding="UTF-8"?>
<!-- Generated by Pixelmator Pro 3.6.9 -->
<svg width="408" height="408" viewBox="0 0 408 408" xmlns="http://www.w3.org/2000/svg">
    <path id="Trazado" fill="#58a937" stroke="none" d="M 0 100.800018 C 16.450001 86 31.75 56.410004 56.380001 76.820007 C 61.619999 81.160004 89.82 112.380005 92.290001 111.940002 L 180.070007 25.269989 C 192.210007 17.720001 206.529999 18.049988 218.350006 26.049988 L 300.399994 107.179993 C 311.299988 93.720001 326.190002 91.800018 339.619995 103.170013 C 351.839996 113.519989 374.730011 136.130005 384.820007 148.369995 C 391.839996 156.889999 385.950012 165.529999 376.070007 161.919998 C 358.769989 145.670013 343.100006 127.459991 325.01001 112.190002 C 321.859985 111.679993 318.320007 111.5 315.98999 113.980011 L 240.809998 189.600006 L 263.609985 189.600006 C 264.690002 189.600006 270.380005 191.940002 271.75 192.660004 C 288.320007 201.319992 287.920013 226.649994 271.160004 234.759995 C 264.950012 237.759995 253.630005 239.729996 252.360001 230.449997 C 250.720001 218.520004 270.26001 224.289993 267.839996 211.800003 C 267.410004 209.600006 264.100006 205.600006 262.01001 205.600006 L 246.410004 205.600006 C 246.059998 224.830002 246.009995 243.860001 251.589996 262.419983 C 256.51001 263.75 262.029999 262.099976 267.600006 262.419983 C 295.799988 263.98999 321 282.049988 331.579987 308.039978 C 349.359985 351.710022 322.5 398.080017 277.609985 408.01001 L 177.610001 408.01001 C 171.169998 404.640015 174 392.810028 180.410004 392.810028 L 217.610001 392.810028 C 206.440002 382.640015 197.309998 370.150024 193.529999 355.289978 C 180.220001 354.26001 165.520004 356.390015 152.380005 355.23999 C 149.320007 354.969971 147.080002 354.330017 144.429993 352.809998 C 141.800003 359.080017 140.020004 365.469971 136.649994 371.460022 C 125.93 390.51001 107.470001 402.940002 86.410004 408.02002 L 0 408.02002 L 0 397.620026 C 1.01 395.840027 4.94 392.820007 6.8 392.820007 L 26.4 392.820007 C 12.54 380.340027 3.37 364.929993 0 346.419983 L 0 324.820007 C 1.31 321.219971 1.66 317.330017 2.83 313.650024 C 13.31 280.580017 46.970001 258.5 81.580002 263.210022 L 84 252.020004 L 69.199997 252.020004 C 49.560001 252.020004 41.16 233.580002 43.18 216.399994 C 44.52 205.020004 63.23 211.240005 71.089996 209.509995 C 72.5 203.410004 73.989998 198.559998 77.989998 193.600006 C 94.410004 173.240005 120.269997 153.289993 138.639999 134.25 C 146.270004 130.059998 155.309998 127.75 164.009995 129.26001 C 165.410004 128.27002 164.539993 124.200012 164.979996 122.200012 C 169.970001 99.26001 196.289993 88.51001 215.449997 102.550018 C 236.600006 118.040009 230.5 150.52002 206.389999 158.809998 L 228.490005 178.360001 L 288.429993 119.209991 L 288.029999 117.190002 L 213.199997 42.390015 C 206.009995 35.230011 194.940002 33.160004 186.800003 40.029999 L 13.61 213.210007 C 9.27 217.569992 3.53 217.009995 0 212 L 0 204 L 79.940002 124.290009 L 40.84 85.929993 C 38.790001 85.600006 36.439999 86.820007 34.790001 87.98999 C 26.84 93.619995 19.35 105.519989 11 111.390015 C 6.04 113.429993 3.43 111.050018 0 108 L 0 100.800018 Z M 207.729996 139.730011 C 222.399994 125.709991 201.190002 102.140015 185.570007 116.369995 C 170.279999 130.300018 192.169998 154.610001 207.729996 139.730011 Z M 230.389999 211.199997 L 230.389999 201.990005 C 230.389999 201.990005 173.970001 151.220001 173.970001 151.220001 C 163.100006 142.700012 153.690002 142.380005 142.820007 151.220001 L 99.199997 194.800003 L 131.229996 203.569992 C 143.039993 192.520004 153.490005 179.699997 166.259995 169.819992 C 168.809998 168.75 171.479996 169.279999 173.880005 170.509995 L 230.380005 211.190002 Z M 230.399994 236 L 230.25 231.75 L 170.110001 188.080002 L 145.649994 212.509995 L 168.389999 236 L 230.389999 236 Z M 172 312.799988 C 168.740005 297.5 168.020004 280.52002 164.600006 265.400024 C 160 245.059998 142.410004 234.619995 129.100006 220.100006 L 88.5 208.740005 C 85.629997 213.149994 87.760002 219.669998 89.980003 224.029999 C 95.599998 235.119995 126.550003 248.020004 138.160004 255.839996 C 143.539993 259.460022 143.300003 260.349976 145.070007 266.539978 C 149.339996 281.549988 151.860001 297.539978 155.210007 312.799988 L 172.009995 312.799988 Z M 73.599998 225.600006 L 59.200001 225.600006 C 59.290001 235.779999 69.57 236.479996 77.599998 236 L 73.599998 225.600006 Z M 232.800003 252 L 177.600006 252 L 188.360001 313.640015 C 188.679993 315.830017 190.130005 317.320007 192.350006 317.570007 C 195.270004 311.940002 196.789993 305.869995 199.869995 300.26001 C 204.619995 291.609985 212.880005 282.26001 220.880005 276.469971 C 223.309998 274.710022 235.179993 268.72998 235.630005 268.01001 C 237.059998 265.710022 233.119995 255.25 232.809998 252 Z M 135.190002 296.799988 L 128.839996 269.159973 L 100 252.809998 L 97.169998 266.450012 C 113.059998 272.630005 125.410004 283 135.190002 296.799988 Z M 128.800003 344 L 72.400002 344 C 69.300003 344 64.629997 339.73999 64.75 336.390015 L 77.57 279.559998 C 77.940002 277.619995 72.160004 278.299988 70.760002 278.369995 C 15.99 280.820007 -4.97 351.47998 40.07 382.73999 C 74.860001 406.880005 123.739998 385.690002 128.800003 344.01001 Z M 240.789993 283.200012 C 202.600006 300.669983 194.690002 352.23999 227.190002 379.609985 C 254.470001 402.580017 296.420013 394.690002 313.73999 363.73999 C 336.890015 322.369995 302.399994 272.469971 256 279.210022 L 272 335.609985 C 271.980011 343.150024 262.070007 346.659973 257.589996 340.409973 L 240.779999 283.210022 Z M 128.800003 328 C 127.400002 307.530029 111.870003 289.700012 93.209999 282.390015 L 83.199997 328 L 128.800003 328 Z M 190.399994 339.200012 C 189.419998 334.940002 182.139999 328.799988 178 328.799988 L 157.600006 328.799988 C 158.059998 332.119995 156.399994 336.659973 158.800003 339.200012 L 190.399994 339.200012 Z"/>
    <path id="path1" fill="#58a937" stroke="none" d="M 154.399994 408 L 145.600006 408 C 141.940002 404.610016 140.330002 398.230011 144.820007 394.820007 C 153.630005 388.119995 162.889999 400.630005 154.399994 408 Z"/>
    <path id="path2" fill="#58a937" stroke="none" d="M 381.709991 28.700012 C 416.329987 28.869995 418.519989 78.029999 382.829987 80.839996 C 363.980011 82.320007 330.410004 82.369995 311.609985 80.800018 C 288.529999 78.869995 277.75 52.390015 295.98999 37.200012 C 297.679993 35.790009 302.019989 33.769989 302.76001 32.769989 C 303.820007 31.359985 305.209991 24.76001 306.48999 22.100006 C 322.380005 -10.709991 371.730011 -6.049988 381.700012 28.690002 Z M 337.390015 16.190002 C 330.290009 17.390015 322.679993 24.329987 320.179993 30.980011 C 318.589996 35.220001 318.880005 41.829987 316.329987 44.730011 C 313.829987 47.589996 309.880005 47.149994 306.910004 48.910004 C 300.480011 52.730011 302.369995 62.730011 309.73999 64.23999 C 332.670013 63.610016 359.380005 66.950012 382.019989 64.820007 C 389.980011 64.070007 395.51001 57.529999 391.350006 49.829987 C 385.829987 39.610016 377.100006 48.790009 370.890015 44.679993 C 366.709991 41.910004 367.5 36.769989 366.160004 32.610016 C 362.179993 20.179993 350.029999 14.040009 337.369995 16.179993 Z"/>
    <path id="path3" fill="#58a937" stroke="none" d="M 398.200012 168.210007 C 409.950012 165.160004 412.720001 182.220001 401.640015 183.669998 C 392.23999 184.899994 389.640015 170.440002 398.200012 168.210007 Z"/>
</svg>
