<?xml version="1.0" encoding="UTF-8"?>
<!-- Generated by Pixelmator Pro 3.6.9 -->
<svg width="271" height="460" viewBox="0 0 271 460" xmlns="http://www.w3.org/2000/svg">
    <path id="Trazado" fill="#58a937" stroke="none" d="M 140.649994 4.320007 C 141.789993 -1.019989 150.070007 -2.519989 153.860001 1.220001 C 154.089996 1.450012 156.050003 5.049988 156.050003 5.279999 L 156.050003 57.619995 C 163.779999 55.459991 169.520004 50.149994 177.149994 55.279999 C 188.160004 62.690002 189.470001 77.75 194.070007 89.290009 C 200.75 106.070007 217.580002 134.98999 215.600006 152.100006 C 213.979996 166.100006 199.059998 183.410004 184.429993 183.410004 L 156.050003 183.410004 L 156.050003 205.019989 C 156.050003 206.98999 169.110001 218.349991 171.539993 220.289993 C 193.259995 237.569992 222.429993 252.329987 242.649994 270.309998 C 251.190002 277.899994 255.300003 287.779999 256.149994 299.089996 C 257.850006 321.699982 254.809998 346.399994 256.109985 369.22998 C 256.940002 373.630005 269.390015 374.130005 271.040009 381.199982 C 271.980011 385.23999 272.140015 405.470001 270.779999 408.829987 C 269.75 411.369995 266.160004 413.919983 263.350006 413.899994 C 243.789993 412.519989 221.940002 415.660004 202.669998 413.919983 C 199.919998 413.669983 194.539993 411.759979 194.539993 408.589996 L 194.539993 359.130005 L 172.610001 404.899994 C 174.429993 411.880005 187.410004 423.72998 186.669998 430.410004 C 186.399994 432.859985 179.369995 453.290009 178.039993 455.5 C 175.949997 458.970001 171.820007 461.25 167.869995 459.209991 C 151.429993 448.72998 132.630005 440.419983 116.32 430 C 111.099998 426.669983 109 425.320007 110.099998 418.419983 C 110.489998 415.98999 115.07 405.850006 114.660004 405.299988 C 113.690002 404.009979 110.07 404.540009 109.82 398.970001 L 136.820007 329.359985 L 121.910004 329.359985 C 119.260002 329.359985 111.879997 326.190002 109.239998 324.720001 C 95.529999 317.059998 87.580002 296.089996 78.940002 283.419983 C 57.060001 281.669983 32.52 290.179993 20.889999 265.959991 C 16.17 256.139984 1.32 216.37999 0.29 206.809998 C -3.17 174.640015 27.360001 164.51001 48.139999 148.170013 L 48.360001 122.51001 C 35.619999 120.639984 40.509998 96.709991 43.98 88.329987 C 57.07 56.73999 100.599998 50.809998 122.360001 77.290009 C 129.740005 86.269989 135.320007 104.059998 132.759995 115.480011 C 131.509995 121.040009 125.269997 121.410004 125.269997 121.919983 L 125.269997 137.279999 L 140.660004 137.279999 L 140.660004 4.320007 Z M 176.25 86.419983 C 175.5 82.809998 172.710007 70.959991 169.539993 69.630005 L 157 72.98999 L 160.850006 89.309998 L 176.25 86.419983 Z M 117.550003 106.589996 C 115.019997 66.190002 57.509998 65.660004 55.970001 106.589996 L 117.550003 106.589996 Z M 172.880005 152.690002 C 168.369995 153.660004 160.940002 151.980011 156.039993 152.690002 L 156.039993 168.049988 L 183.460007 168.049988 C 184.029999 168.049988 189.779999 165.450012 190.820007 164.829987 C 199.229996 159.769989 202.300003 149.899994 199.380005 140.640015 L 182.899994 100.919983 L 165.740005 105.130005 L 179.100006 144.610016 C 179.559998 147.440002 175.229996 152.170013 172.880005 152.679993 Z M 109.860001 121.959991 L 63.68 121.959991 L 63.68 150.290009 C 63.68 150.890015 66.150002 155.769989 66.75 156.829987 C 78.25 176.98999 109.860001 166.880005 109.860001 147.410004 L 109.860001 121.959991 Z M 159.889999 137.320007 L 156.059998 125.809998 L 156.059998 137.329987 C 156.059998 137.329987 159.889999 137.329987 159.889999 137.329987 Z M 140.649994 152.690002 L 130.059998 153.179993 C 131.240005 155.130005 136.259995 167.470001 136.960007 167.890015 C 137.880005 168.429993 139.509995 167.910004 140.649994 168.059998 L 140.649994 152.700012 Z M 140.649994 229.509995 L 140.649994 209.819992 C 140.649994 209.119995 134.470001 200.119995 133.410004 197.839996 C 128.520004 187.339996 125.690002 175.779999 119.010002 166.140015 C 102.040001 190.190002 68.540001 188.470001 52.5 164.269989 L 42.639999 170.110016 L 68.650002 237.019989 C 78.139999 236.319992 90.580002 238.549988 99.699997 237.119995 C 103.379997 236.539993 113.730003 229.5 115.150002 229.5 L 140.649994 229.5 Z M 44.91 267.919983 L 94.459999 267.919983 L 94.459999 252.559998 L 61.259998 252.559998 C 60.860001 252.559998 58.400002 250.73999 57.880001 250.169998 L 29.98 180.529999 C 22.299999 183.170013 15.96 192.209991 15.51 200.190002 C 14.64 215.559998 32.110001 244.789993 35.57 260.910004 C 37.139999 263.919983 41.650002 267.380005 44.900002 267.919983 Z M 240.710007 367.790009 L 240.710007 296.25 C 240.710007 291.619995 234.330002 283.269989 230.589996 280.429993 L 173.410004 240.459991 L 159.009995 257.019989 C 158.75 258.48999 160.949997 259.809998 161.899994 260.639984 C 178.139999 274.809998 204.550003 282.509979 209.679993 306.100006 C 210.960007 311.98999 209.850006 315.149994 209.880005 320.220001 C 209.979996 336.079987 209.899994 351.949982 209.919998 367.790009 L 240.710007 367.790009 Z M 140.649994 244.869995 L 119 244.869995 C 118.449997 244.869995 111.040001 249.209991 109.860001 250.149994 L 109.860001 267.919983 L 140.649994 267.919983 L 140.649994 244.869995 Z M 156.039993 275.600006 L 156.039993 323.130005 L 129.089996 391.790009 L 158.360001 397.399994 C 159.639999 397.100006 161.009995 393.47998 161.669998 392.139984 C 171.350006 372.350006 182.610001 349.309998 190.850006 329.070007 C 195.820007 316.850006 197.720001 308.779999 188.270004 297.699982 L 156.039993 275.609985 Z M 111.779999 283.290009 L 96.389999 283.290009 L 102.660004 292.899994 C 104.709999 293.380005 110.440002 285.089996 111.779999 283.290009 Z M 140.649994 283.290009 C 138.649994 283.459991 136.339996 282.940002 134.410004 283.309998 C 129.779999 284.190002 116.629997 303.100006 111.800003 306.820007 C 111.800003 308.429993 121.099998 314.019989 122.849998 314.019989 L 140.649994 314.019989 L 140.649994 283.290009 Z M 256.109985 398.519989 L 255.639999 387.949982 C 254.289993 387.279999 247.509995 383.160004 246.970001 383.160004 L 209.929993 383.160004 L 209.929993 398.519989 L 256.109985 398.519989 Z M 130.479996 408.399994 C 129.229996 408.630005 125.800003 417.720001 128.119995 419.179993 L 166.639999 440.329987 C 167.440002 439.720001 170.259995 431.220001 170 430.109985 C 169.779999 429.130005 159.75 413.949982 158.889999 413.440002 L 130.479996 408.399994 Z"/>
    <path id="path1" fill="#58a937" stroke="none" d="M 44.169998 314.199982 C 49.52 313.040009 53.450001 315.850006 54.080002 321.190002 C 55.119999 330.059998 55.330002 360.699982 54 369.169983 C 52.669998 377.639984 39.779999 378.049988 38.639999 368.290009 C 37.599998 359.350006 37.380001 328.829987 38.720001 320.309998 C 39.16 317.470001 41.290001 314.829987 44.169998 314.199982 Z"/>
    <path id="path2" fill="#58a937" stroke="none" d="M 244.300003 14.589996 C 249.649994 13.429993 253.580002 16.23999 254.210007 21.579987 C 255.100006 29.170013 255.270004 54.619995 254.130005 61.880005 C 252.800003 70.380005 239.910004 70.76001 238.770004 61 C 237.880005 53.359985 237.710007 28 238.850006 20.700012 C 239.289993 17.859985 241.419998 15.220001 244.300003 14.589996 Z"/>
    <path id="path3" fill="#58a937" stroke="none" d="M 213.509995 45.320007 C 218.860001 44.160004 222.789993 46.970001 223.419998 52.309998 C 224.309998 59.899994 224.479996 85.350006 223.339996 92.609985 C 222.009995 101.109985 209.119995 101.48999 207.979996 91.730011 C 207.089996 84.089996 206.919998 58.730011 208.059998 51.429993 C 208.5 48.589996 210.630005 45.950012 213.509995 45.320007 Z"/>
    <path id="path4" fill="#58a937" stroke="none" d="M 74.959999 352.619995 C 80.309998 351.459991 84.239998 354.269989 84.870003 359.609985 C 85.760002 367.199982 85.93 392.649994 84.790001 399.910004 C 83.459999 408.410004 70.57 408.790009 69.43 399.029999 C 68.540001 391.389984 68.370003 366.029999 69.510002 358.72998 C 69.949997 355.889984 72.080002 353.25 74.959999 352.619995 Z"/>
    <path id="path5" fill="#58a937" stroke="none" d="M 213.509995 6.910004 C 226.110001 4.170013 225.710007 24.559998 220.490005 28.299988 C 207.139999 37.869995 202.880005 9.220001 213.509995 6.910004 Z"/>
    <path id="path6" fill="#58a937" stroke="none" d="M 74.959999 314.199982 C 87.559998 311.459991 87.160004 331.850006 81.940002 335.589996 C 68.589996 345.160004 64.330002 316.509979 74.959999 314.199982 Z"/>
</svg>
