<?xml version="1.0" encoding="UTF-8"?>
<!-- Generated by Pixelmator Pro 3.6.9 -->
<svg width="372" height="391" viewBox="0 0 372 391" xmlns="http://www.w3.org/2000/svg">
    <path id="Trazado" fill="#58a937" stroke="none" d="M 4.03 243.730011 C 2.13 243.320007 0.28 240.580002 0.44 238.570007 C 1.5 221.230011 -0.92 202.380005 0.43 185.230011 C 2.18 162.87001 20.799999 142.980011 42.619999 138.710007 C 17.42 115.869995 30.110001 74.899994 63.23 69.429993 L 63.290001 6.23999 C 63.830002 1.350006 66.139999 -0.130005 70.830002 -0.549988 L 369.390015 0.100006 L 372.609985 3.23999 L 372.820007 384.97998 C 373.119995 387.609985 371.440002 389.079987 369.380005 390.289978 L 70.82 390.940002 C 68.089996 391.419983 63.299999 388.369995 63.299999 385.72998 L 63.299999 362.259979 L 30.280001 362.259979 C 29.48 362.259979 26.700001 359.47998 26.700001 358.679993 L 26.700001 243.720001 C 20.219999 242.770004 10 245 4.03 243.720001 Z M 361.619995 10.640015 L 75.629997 10.640015 L 74.440002 11.829987 L 74.440002 69.51001 C 107.730003 73.600006 121.150002 115.890015 95.940002 138.320007 C 100 140.350006 104.419998 141.240005 108.550003 143.190002 C 120.309998 148.75 130.490005 160.270004 134.919998 172.51001 C 139.479996 185.100006 139.440002 223.590012 138.119995 237.800003 C 137.940002 239.780014 136.949997 243.730011 134.5 243.730011 L 111.830002 243.730011 L 111.830002 358.690002 C 111.830002 359.019989 109.169998 362.269989 108.25 362.269989 L 74.440002 362.269989 L 74.440002 378.579987 L 75.629997 379.769989 L 113.419998 379.769989 C 112.010002 367.48999 116.300003 353.429993 130.089996 351.889984 C 131.130005 338.48999 127.800003 322.970001 132.610001 310.259979 C 136.520004 299.929993 145.830002 291.419983 156.369995 288.269989 C 137.490005 264.809998 160.580002 231.300003 189.270004 243.050003 C 207.089996 250.350006 212 273.789978 199.330002 288.269989 L 210.860001 293.589996 L 221.610001 288.259979 C 210.240005 273.940002 213.429993 251.630005 230.610001 243.570007 C 259.089996 230.210007 285.019989 264.579987 264.570007 288.259979 L 276.100006 293.579987 L 286.850006 287.859985 C 275.339996 273.73999 279.329987 250.960007 296.399994 243.330002 C 324.920013 230.580002 350.179993 265 329.809998 288.269989 C 358.970001 296.639984 357.929993 326.429993 356.809998 351.459991 L 361.630005 352.709991 L 361.630005 10.640015 Z M 68.690002 80.070007 C 30.9 80.890015 32 137.990005 69.260002 137.990005 C 106.519997 137.990005 106.669998 79.25 68.690002 80.070007 Z M 126.940002 232.600006 L 126.940002 185.270004 C 126.940002 172.160004 112.400002 156.480011 100.669998 151.87001 C 90.419998 147.840012 60.240002 148.01001 48.59 149.080002 C 32.669998 150.540009 11.58 167.75 11.58 184.470001 L 11.58 232.600006 L 26.700001 232.600006 L 26.700001 189.240005 C 26.700001 186.320007 32.330002 184.720001 35.110001 186.400009 C 35.650002 186.730011 37.84 189.670013 37.84 190.030014 L 37.84 232.590012 L 100.690002 232.590012 L 100.690002 189.230011 C 100.690002 189.050003 102.639999 186.520004 102.830002 186.400009 C 105.580002 184.740005 111.830002 186.070007 111.830002 189.230011 L 111.830002 232.590012 L 126.949997 232.590012 Z M 63.290001 243.730011 L 37.830002 243.730011 L 37.830002 351.130005 L 63.290001 351.130005 L 63.290001 243.730011 Z M 100.68 243.730011 L 75.620003 243.730011 L 74.43 244.920013 L 74.43 351.119995 L 100.68 351.119995 L 100.68 243.720001 Z M 190.300003 281.630005 C 207.309998 264.600006 179.899994 239.540009 164.710007 258.030029 C 150.539993 275.269989 175.259995 296.690002 190.300003 281.630005 Z M 240.490005 251.880005 C 219.529999 255.050003 222.270004 287.609985 244.240005 286.709991 C 267.529999 285.759979 264.839996 248.190002 240.490005 251.880005 Z M 305.720001 251.880005 C 281.029999 255.860001 291.450012 295.5 315.779999 285.009979 C 333.700012 277.289978 325.970001 248.610001 305.720001 251.880005 Z M 214.449997 351.130005 L 214.449997 318.119995 C 214.449997 311.970001 204.880005 302.23999 199.339996 299.819977 C 192.899994 297.019989 172.25 297.109985 164.699997 297.799988 C 154.990005 298.690002 141.270004 309.509979 141.270004 319.709991 L 141.270004 351.130005 L 214.460007 351.130005 Z M 280.480011 351.130005 L 280.480011 323.679993 C 280.480011 314.410004 273.5 303.910004 265.109985 300.069977 C 258.5 297.039978 236.880005 296.97998 229.160004 297.819977 C 225.660004 298.199982 222.559998 300.079987 219.259995 301.049988 C 218.570007 302.019989 225.589996 313.339996 225.589996 316.519989 L 225.589996 351.130005 L 280.480011 351.130005 Z M 345.709991 351.130005 L 345.709991 322.889984 C 345.709991 314.350006 338.589996 303.889984 330.890015 300.319977 C 323.790009 297.029999 299.529999 296.73999 291.769989 298.389984 C 290.660004 298.630005 284.48999 300.910004 284.399994 301.459991 C 285.470001 305.119995 288.040009 308.089996 289.25 311.72998 C 290.160004 314.459991 291.609985 321.069977 291.609985 323.690002 L 291.609985 351.139984 L 345.709991 351.139984 Z M 361.619995 379.769989 L 361.619995 368.22998 C 361.619995 366.019989 355.230011 361.319977 352.5 362.22998 L 132.880005 362.22998 C 124.470001 362.940002 122.639999 373.47998 125.739998 379.759979 L 361.619995 379.759979 Z"/>
    <path id="path1" fill="#58a937" stroke="none" d="M 311.690002 146.87001 L 307.579987 157.410004 C 308.450012 161.830002 316.059998 173.5 315.359985 177.110001 C 315.119995 178.350006 314.220001 179.150009 313.51001 180.100006 C 311.779999 182.389999 297.579987 196.330002 295.799988 196.670013 C 291.880005 197.430008 280.410004 189.310013 275.48999 188.960007 L 265.290009 193.320007 C 262.209991 198.970001 261.089996 212.660004 253.839996 213.5 C 249.919998 213.950012 235.100006 214.130005 231.570007 213.460007 C 225.589996 212.330002 224.360001 195.690002 220.320007 192.880005 C 219.369995 192.220001 211.149994 188.940002 210.190002 189.030014 C 203.25 189.639999 194.610001 200.01001 187.360001 194.810013 C 185.5 193.470001 173.809998 181.770004 172.710007 180.030014 C 171.440002 178.020004 171.160004 176.670013 171.639999 174.290009 C 172.320007 170.930008 179.460007 159.030014 179.059998 156.940002 C 178.940002 156.300003 175.009995 147.470001 174.639999 147.080002 C 171.020004 143.37001 156.880005 142.600006 154.580002 136.910004 C 153.330002 133.820007 153.460007 113.589996 155.210007 110.910004 C 157.289993 107.709991 171.259995 104.929993 175.039993 102.100006 L 179.059998 91.690002 C 177.360001 84.420013 168.279999 75.589996 173.449997 68.690002 C 175.149994 66.429993 188.529999 53.309998 190.360001 52.929993 C 195.389999 51.899994 205.720001 59.839996 211.330002 60.350006 L 221.169998 55.959991 C 223.440002 52.309998 226.479996 38.940002 229.240005 36.980011 C 232.679993 34.540009 253 34.450012 256.529999 36.549988 C 260.700012 39.029999 262.209991 50.269989 264.720001 54.619995 C 265.540009 56.049988 274.690002 60.450012 276.079987 60.459991 C 278.880005 60.470001 288.75 54.160004 292.369995 53.170013 C 295.799988 52.230011 296.940002 52.809998 299.570007 54.769989 C 301.519989 56.220001 313.660004 68.429993 314.480011 70.089996 C 317.609985 76.369995 307.059998 87.299988 307.820007 92.600006 C 307.970001 93.670013 311.619995 101.910004 312.290009 102.5 C 315.73999 105.549988 329.850006 107.450012 331.75 111.679993 C 332.649994 113.670013 332.470001 135.590012 331.559998 137.720001 C 329.929993 141.530014 315.670013 144.520004 311.670013 146.87001 Z M 320.940002 131.450012 L 320.679993 118 C 319.459991 116.200012 306.149994 113.73999 303.089996 110.130005 C 300.420013 106.980011 298.950012 97.410004 295.730011 93.570007 C 294.779999 88.730011 301.940002 80.040009 302.630005 75.269989 C 303.01001 72.660004 295.519989 67.110016 293.609985 64.950012 L 275.980011 72.459991 C 275.070007 72.51001 260.440002 66.619995 259.059998 65.869995 C 253.660004 62.890015 252.460007 47.220001 248.259995 46.440002 C 247.039993 46.209991 237.339996 46.279999 236.850006 46.579987 L 229.589996 64.369995 C 228.669998 65.390015 211.619995 72.390015 210.369995 72.290009 C 205.820007 71.899994 199.080002 66.529999 194.75 65.660004 C 191.149994 64.940002 186.309998 72.390015 183.630005 74.670013 C 185.830002 80.580017 191.820007 88.700012 190.190002 94.98999 C 189.860001 96.23999 185.050003 107.830017 184.369995 109.049988 C 181.729996 113.790009 165.539993 116.690002 165.080002 118.570007 L 165.5 130.769989 C 170.419998 134.76001 181.309998 135.01001 184.360001 140.550003 C 185.270004 142.210007 189.740005 152.900009 190.190002 154.610001 C 191.979996 161.430008 185.009995 168.680008 183.779999 175.330002 L 192.720001 183.960007 L 210.850006 176.860001 C 215.910004 179.690002 227.740005 182.110001 230.5 186.690002 C 232.600006 190.170013 234.350006 199.230011 236.300003 201.570007 C 237.729996 203.290009 247.339996 202.040009 250.119995 202.25 L 257.029999 184.900009 L 274.690002 177.040009 C 279.140015 176.280014 287.769989 182.900009 292.369995 183.76001 C 295.98999 184.440002 300.029999 177.910004 302.609985 175.550003 L 295.600006 157.330002 L 302.269989 140.25 C 304.75 135.770004 316.279999 133.920013 320.920013 131.450012 Z"/>
    <path id="path2" fill="#58a937" stroke="none" d="M 238.139999 86.440002 C 291.519989 80.01001 297.079987 160.800003 245.059998 163.37001 C 196.440002 165.770004 190.440002 92.190002 238.139999 86.440002 Z M 238.919998 97.559998 C 206.039993 102 210.259995 153.740005 244.25 152.26001 C 281.809998 150.62001 277.609985 92.339996 238.919998 97.559998 Z"/>
</svg>
